<?xml version="1.0" encoding="UTF-8" standalone="no"?>
<!-- Created with Inkscape (http://www.inkscape.org/) -->

<svg
   width="210mm"
   height="297mm"
   viewBox="0 0 210 297"
   version="1.1"
   id="svg1"
   xml:space="preserve"
   inkscape:export-filename="image.svg"
   inkscape:export-xdpi="96"
   inkscape:export-ydpi="96"
   xmlns:inkscape="http://www.inkscape.org/namespaces/inkscape"
   xmlns:sodipodi="http://sodipodi.sourceforge.net/DTD/sodipodi-0.dtd"
   xmlns="http://www.w3.org/2000/svg"
   xmlns:svg="http://www.w3.org/2000/svg"><sodipodi:namedview
     id="namedview1"
     pagecolor="#505050"
     bordercolor="#eeeeee"
     borderopacity="1"
     inkscape:showpageshadow="0"
     inkscape:pageopacity="0"
     inkscape:pagecheckerboard="0"
     inkscape:deskcolor="#505050"
     inkscape:document-units="mm" /><defs
     id="defs1" /><g
     inkscape:label="Calque 1"
     inkscape:groupmode="layer"
     id="layer1"><path
       style="fill:#000000"
       d="m 91.631105,220.43096 c -0.0242,-0.0241 -1.29419,-0.12502 -2.82216,-0.22424 -2.48116,-0.1611 -3.86911,-0.37329 -7.9003,-1.20778 -3.19477,-0.66135 -7.31939,-2.23248 -7.993655,-3.0449 -0.16807,-0.20252 -0.42955,-0.29159 -0.58107,-0.19795 -0.15151,0.0936 -0.20167,0.0508 -0.11146,-0.0951 0.0902,-0.14596 -0.0687,-0.49178 -0.3532,-0.76848 -0.28448,-0.2767 -0.82506,-0.80075 -1.2013,-1.16455 -0.81261,-0.78575 -3.3047,-4.92478 -4.24402,-7.04875 -1.04743,-2.36843 -1.88501,-5.65985 -2.75102,-10.81062 -0.4404,-2.61938 -1.12644,-5.8936 -1.524533,-7.27605 -0.700601,-2.43294 -0.723811,-2.7214 -0.723811,-8.99583 0,-5.51243 0.06921,-6.6715 0.462545,-7.74691 0.862279,-2.3575 0.983549,-6.78799 0.990319,-36.17917 l 0.007,-28.97713 -1.98654,0.10032 -1.986535,0.10031 0.0058,-0.75652 c 0.0092,-1.20036 0.946197,-2.95798 2.551826,-4.78682 l 1.484848,-1.691257 -0.32607,-3.62151 c -0.179337,-1.99184 -0.507786,-4.09777 -0.729884,-4.67985 -0.288081,-0.75501 -0.439645,-2.4612 -0.528828,-5.95312 -0.132383,-5.18339 0.116296,-7.15235 1.212942,-9.60369 1.29203,-2.8881 1.62105,-3.72459 1.62135,-4.12213 4.3e-4,-0.55319 4.53988,-10.34585 5.32,-11.47649 4.244166,-6.15114 10.084146,-9.30796 19.232536,-10.39622 8.783083,-1.04481 18.377185,0.37837 23.765555,3.52535 3.15299,1.84144 6.68472,5.43387 8.25117,8.39297 1.63839,3.09499 4.31368,9.09657 4.66335,10.46148 0.22033,0.86001 0.75085,2.25751 1.17893,3.10555 1.55014,3.0708 1.74433,4.18303 1.74708,10.00618 0.002,3.48665 -0.0982,5.44488 -0.29004,5.68855 -0.47371,0.60169 -0.8685,2.6065 -1.03995,5.281 -0.0881,1.3744 -0.20568,2.64287 -0.26128,2.81882 -0.0978,0.30958 0.76447,1.636837 2.36942,3.647017 0.73996,0.92679 1.80873,3.50961 1.59523,3.85506 -0.0557,0.09 -0.90677,0.18981 -1.89136,0.22168 -0.9846,0.0319 -1.82451,0.0923 -1.86647,0.13425 -0.12095,0.12095 -0.068,58.08444 0.0544,59.55541 0.27315,3.28263 0.47583,4.57946 0.88902,5.68854 0.36768,0.9869 0.44358,2.23187 0.44358,7.27604 v 6.08542 l -0.98379,3.96875 c -0.54109,2.18281 -1.29141,5.81421 -1.66738,8.06979 -0.37597,2.25557 -0.80733,4.51776 -0.95857,5.02708 -0.55429,1.86662 -2.10354,5.2519 -3.39849,7.42609 -0.73089,1.22716 -1.27481,2.37397 -1.20871,2.54846 0.0662,0.17486 -0.0307,0.25933 -0.21608,0.18821 -0.18495,-0.071 -0.47551,0.17656 -0.64569,0.55007 -0.17018,0.37351 -0.48905,0.74803 -0.70859,0.83228 -0.21954,0.0842 -0.39916,0.29195 -0.39916,0.46157 0,0.16962 -0.41849,0.53377 -0.92998,0.80923 -0.73135,0.39386 -0.89718,0.61862 -0.77642,1.05235 0.11433,0.41062 0.0878,0.45634 -0.10369,0.17895 -0.21879,-0.31688 -0.40029,-0.3047 -1.2141,0.0815 -0.52626,0.24973 -0.89815,0.54902 -0.82642,0.66508 0.0717,0.11607 -0.16363,0.15483 -0.52302,0.0861 -0.37931,-0.0725 -0.65346,-9.7e-4 -0.65346,0.17052 0,0.16248 -0.22176,0.29542 -0.49281,0.29542 -0.27105,0 -1.43687,0.23496 -2.5907,0.52214 -3.59144,0.89385 -7.3118,1.56135 -9.76936,1.7528 -2.095782,0.16326 -8.552525,0.30836 -8.666635,0.19477 z m 9.745555,-1.41654 c 4.91128,-0.5474 13.78666,-2.56824 13.32167,-3.03323 -0.0622,-0.0622 -0.62276,0.0624 -1.24559,0.27698 -2.21708,0.76385 -9.98052,2.24791 -13.25071,2.53302 -4.032485,0.35157 -11.351005,0.14129 -14.964965,-0.42998 -2.16055,-0.34152 -7.79482,-1.5598 -9.85057,-2.12996 -0.25749,-0.0714 -0.0633,0.0582 0.4316,0.28794 1.23211,0.5721 6.0883,1.64608 10.08043,2.22935 3.7862,0.55318 11.683363,0.68884 15.478135,0.26588 z m 3.30729,-1.88034 c 10.218,-1.63777 13.10518,-3.20179 15.69235,-8.50069 2.05136,-4.20148 2.77563,-6.95472 3.09289,-11.75725 0.15197,-2.30043 0.32916,-4.83744 0.39377,-5.6378 0.3445,-4.26802 0.79358,-13.90499 0.75825,-16.27188 -0.0421,-2.81943 -0.29355,-4.69111 -0.6621,-4.92785 -0.4416,-0.28368 -2.14744,-0.77869 -2.26798,-0.65815 -0.0485,0.0485 -0.32805,1.74193 -0.6212,3.76314 -0.87802,6.05375 -2.15206,10.4824 -2.88525,10.02926 -0.71414,-0.44136 -2.21967,-6.36864 -3.15969,-12.43973 -1.30009,-8.39656 -1.87539,-17.31892 -1.87165,-29.0278 0.004,-13.91089 0.89073,-20.95894 4.38204,-34.8475 0.78948,-3.14056 1.43556,-5.91847 1.43574,-6.17314 1.8e-4,-0.25466 0.11873,-0.46302 0.26345,-0.46302 0.16503,0 0.23208,-1.257567 0.17986,-3.373427 -0.0701,-2.84159 -0.17391,-3.54854 -0.65829,-4.48404 -1.65858,-3.20331 -9.79457,-6.18472 -19.093182,-6.99665 -9.004703,-0.78627 -18.211573,0.59671 -24.770093,3.72076 -3.854815,1.83617 -4.604745,3.01198 -4.604745,7.21971 0,1.32026 -0.10421,2.29298 -0.23686,2.211 -0.33326,-0.20597 -0.61536,0.64847 -0.33299,1.00858 0.12816,0.16346 0.3102,0.803097 0.40452,1.421417 0.0943,0.61832 0.77386,3.11863 1.51009,5.55625 0.73622,2.43761 1.563,5.38452 1.837275,6.54869 0.84509,3.58704 2.09887,11.43568 2.51104,15.71906 0.73298,7.61738 0.43171,26.96824 -0.5544,35.61011 -0.89032,7.80237 -3.136615,18.91771 -3.823075,18.91771 -0.34196,0 -1.0123,-0.94078 -1.41394,-1.98438 -0.55257,-1.43578 -1.12026,-4.36972 -1.60798,-8.31033 -0.22349,-1.80578 -0.45907,-3.33596 -0.5235,-3.40039 -0.19899,-0.19899 -2.79727,0.75728 -2.79727,1.0295 0,0.14105 0.18449,0.6375 0.40997,1.10322 l 0.40996,0.84675 -0.56502,-0.65273 -0.56501,-0.65273 0.15789,1.0496 c 0.12007,0.79813 0.0948,0.92282 -0.10523,0.52045 -0.41855,-0.84175 0.16767,15.71711 0.63695,17.99166 0.06,0.29104 0.11828,1.2208 0.12942,2.06614 0.0111,0.84533 0.10954,1.48326 0.21868,1.41762 0.10914,-0.0657 0.22917,1.38584 0.26673,3.22553 0.0388,1.89857 0.24287,4.02717 0.47204,4.92282 1.0328,4.03638 3.71467,9.11609 5.71846,10.83126 1.748175,1.49637 5.854425,2.7683 12.394325,3.83919 4.23719,0.69384 5.68223,0.77253 11.64167,0.63397 3.083493,-0.0717 6.118645,-0.30997 8.202085,-0.64391 z m -17.587615,-0.53449 c -2.76473,-0.35425 -7.98283,-1.45498 -9.92905,-2.09448 -4.277685,-1.40558 -5.769165,-2.65531 -7.635795,-6.39814 -1.05681,-2.11903 -1.63457,-4.61832 -1.14263,-4.9428 0.12909,-0.0851 0.0924,-1.48882 -0.0836,-3.19458 -0.17262,-1.67349 -0.33651,-4.53099 -0.36421,-6.35 -0.10105,-6.63765 -1.07411,-18.5358 -1.63697,-20.01623 -0.14526,-0.38206 -0.20458,-0.75419 -0.13182,-0.82695 0.16648,-0.16648 0.61511,0.99933 0.93252,2.42326 0.1336,0.59934 0.42958,3.1733 0.65774,5.71992 0.9614,10.73098 1.41072,14.03454 2.34901,17.27068 l 0.59645,2.05713 0.49648,-1.39568 c 0.27307,-0.76762 0.81894,-2.11005 1.21305,-2.98317 0.893495,-1.97948 1.721355,-4.49928 2.361885,-7.18904 0.60759,-2.5514 2.25123,-11.58936 2.66227,-14.63909 0.16671,-1.23693 0.46616,-3.32052 0.66544,-4.63021 1.30415,-8.5712 1.4786,-11.11704 1.68607,-24.60625 0.21101,-13.71887 0.2545,-14.11949 1.71314,-15.78064 2.07561,-2.3638 4.99935,-3.16103 12.22647,-3.33387 6.027103,-0.14415 9.819305,0.28146 12.134805,1.3619 1.7449,0.8142 2.44155,1.51649 3.28187,3.30843 l 0.69385,1.4796 0.16931,13.49375 c 0.20923,16.67515 0.5705,20.30008 3.79511,38.07994 1.25631,6.92701 3.45418,14.44544 4.10523,14.04307 0.0966,-0.0597 0.3812,0.54367 0.63248,1.34082 0.50993,1.61771 0.80203,1.66956 1.05262,0.18686 1.06972,-6.32922 1.25751,-7.95206 2.27748,-19.68058 0.48134,-5.53486 0.75439,-6.83484 1.67507,-7.9748 0.65277,-0.80824 0.65159,-0.50345 -0.003,0.81961 -0.51163,1.03383 -0.68555,1.97049 -0.89656,4.82865 -0.14399,1.9503 -0.49498,6.40471 -0.77998,9.89868 -0.57994,7.10969 -0.62761,8.59629 -0.27566,8.59629 0.1334,0 0.29248,-0.0893 0.35351,-0.19844 0.061,-0.10914 0.0747,-0.0496 0.0304,0.13229 -0.0444,0.18191 0.0872,0.33073 0.29233,0.33073 0.20512,0 0.4457,0.1177 0.5346,0.26156 0.0927,0.14998 -0.0135,0.19433 -0.24897,0.10398 -0.22583,-0.0867 -0.41061,-0.0258 -0.41061,0.13532 0,0.16109 0.14883,0.29651 0.33073,0.30094 0.18354,0.004 0.12467,0.12806 -0.13229,0.27773 -0.25467,0.14833 -0.46303,0.37909 -0.46303,0.51282 0,0.13372 0.20836,0.16907 0.46303,0.0786 0.39491,-0.14036 0.38518,-0.0864 -0.0661,0.36685 -0.29104,0.29227 -0.56885,0.4296 -0.61736,0.30516 -0.23541,-0.60389 -0.44097,-0.0925 -0.44097,1.09701 0,1.27671 0.20052,1.67941 0.49389,0.99184 0.0776,-0.1819 0.0842,0.0653 0.0147,0.54931 -0.0954,0.66421 -0.0435,0.8315 0.21166,0.68212 0.18593,-0.10885 0.11124,0.0607 -0.16598,0.37674 -0.27721,0.31606 -0.37705,0.57465 -0.22185,0.57465 0.32186,0 0.28173,0.67487 -0.0585,0.98453 -0.12456,0.11335 -0.13038,0.0275 -0.0129,-0.19078 0.17662,-0.3283 0.15004,-0.33782 -0.15381,-0.0551 -0.25951,0.24143 -0.28093,0.39676 -0.073,0.52917 0.72117,0.4592 -0.35487,3.3056 -2.4292,6.42583 -1.48122,2.22807 -1.90077,2.52842 -5.4666,3.91341 -5.23333,2.03265 -11.38058,2.96252 -19.248125,2.91158 -2.84318,-0.0184 -5.99964,-0.13984 -7.01433,-0.26986 z m 16.926155,-1.44675 c 7.43698,-1.03135 13.6351,-3.41618 13.62214,-5.24135 -0.004,-0.49656 -0.0352,-0.4858 -0.33073,0.11226 -0.36244,0.73354 -2.86553,2.09475 -3.87665,2.10818 -0.35168,0.005 -0.56184,0.0861 -0.46703,0.18088 0.65122,0.65122 -5.6026,2.06693 -11.59356,2.62449 -8.439685,0.78546 -16.410545,0.21527 -23.151035,-1.65608 -3.66348,-1.01709 -4.77661,-1.54566 -5.893575,-2.79858 -0.94941,-1.06498 -0.97787,-1.07783 -0.57579,-0.26016 0.23943,0.4869 0.9398,1.16305 1.613925,1.55811 2.55774,1.49894 10.24497,3.39092 15.43876,3.79978 3.7204,0.29288 11.619345,0.0709 15.213545,-0.42753 z m 1.5875,-2.07163 c 2.03729,-0.38682 3.81728,-0.81627 3.95552,-0.95434 0.34821,-0.34776 -0.0143,-0.32226 -2.28458,0.16075 -1.06454,0.22648 -2.88802,0.5239 -4.05219,0.66094 -1.16417,0.13703 -2.57192,0.30931 -3.12834,0.38284 -0.556422,0.0735 -3.175792,0.15081 -5.820835,0.17174 -5.46744,0.0433 -10.04523,-0.52523 -15.22662,-1.89094 -2.95032,-0.77763 -4.71448,-1.59728 -7.260035,-3.37308 -1.42448,-0.99374 -1.35114,-0.48646 0.12714,0.87943 1.807595,1.67016 6.537305,3.14586 13.581605,4.23756 3.50458,0.54312 4.69595,0.60414 10.18646,0.52173 5.371315,-0.0806 6.721945,-0.18906 9.921875,-0.79663 z m -4.23333,-0.82939 c 6.77399,-0.48922 12.87104,-2.35479 15.5214,-4.74923 0.55912,-0.50513 1.11337,-0.91842 1.23168,-0.91842 0.1183,0 0.48092,-0.47296 0.8058,-1.05101 0.47031,-0.83681 0.57461,-1.38526 0.51174,-2.69098 -0.084,-1.74505 -0.55494,-2.33654 -0.97682,-1.22691 -0.13182,0.3467 -0.5966,1.16005 -1.03285,1.80745 -0.43625,0.64739 -0.92882,1.6823 -1.0946,2.29979 -0.2264,0.84326 -0.51304,1.23205 -1.1516,1.56201 -0.46759,0.24162 -0.96923,0.59602 -1.11475,0.78757 -0.27911,0.36738 -3.61866,1.70133 -4.17323,1.66695 -0.17858,-0.0111 0.092,-0.18061 0.60135,-0.37674 1.40035,-0.53928 0.35066,-0.45867 -1.45521,0.11175 -0.87312,0.27579 -1.34937,0.52416 -1.05833,0.55194 0.4524,0.0432 0.43321,0.0812 -0.13229,0.26235 -0.94615,0.30301 -1.58045,0.2868 -0.92604,-0.0237 0.39753,-0.18859 0.2988,-0.21128 -0.39688,-0.0912 -3.81686,0.65873 -7.143042,0.90848 -12.031605,0.90339 -4.46844,-0.005 -6.30141,-0.13017 -9.66423,-0.66176 -0.67982,-0.10746 -0.82052,-0.0745 -0.52917,0.12396 0.60956,0.41523 -0.28694,0.36341 -1.516,-0.0876 -2.3725,-0.87064 -5.89253,-1.7817 -6.18515,-1.60085 -0.20159,0.12459 -0.24895,0.0847 -0.12931,-0.10887 0.12,-0.19417 -0.0154,-0.30547 -0.37161,-0.30547 -0.35622,0 -0.49161,-0.11129 -0.37161,-0.30546 0.11521,-0.18641 0.0728,-0.23376 -0.10891,-0.12148 -0.45038,0.27835 -1.8368,-0.54527 -2.06005,-1.2238 -0.21608,-0.65675 -0.23537,-1.08928 -0.31523,-7.06728 -0.0312,-2.3342 -0.153245,-3.97998 -0.284525,-3.83646 -0.40533,0.44315 -1.3576,3.63108 -1.3576,4.54486 0,0.48591 0.29766,1.47086 0.66146,2.18879 0.3638,0.71793 0.66146,1.51588 0.66146,1.77322 0,0.26175 -0.24542,0.003 -0.55703,-0.58651 -0.68125,-1.28956 -1.55914,-2.27658 -1.85965,-2.09085 -0.1227,0.0758 -0.15219,-0.0469 -0.0655,-0.27274 0.0867,-0.22584 0.0385,-0.41062 -0.10702,-0.41062 -0.75306,0 -0.58925,3.34027 0.22872,4.66378 0.78081,1.26337 2.925215,2.92169 4.968295,3.84209 5.30099,2.3881 15.51866,3.46308 25.834915,2.71803 z m 11.01942,-0.89564 c 0.92535,-0.28581 2.50049,-1.01304 3.50033,-1.61607 1.43546,-0.86577 1.86576,-1.02083 2.04553,-0.73711 0.12521,0.19761 0.2311,0.24023 0.23532,0.0947 0.004,-0.14552 0.0843,-0.56224 0.17788,-0.92604 0.16099,-0.6256 0.14286,-0.63872 -0.33434,-0.24211 -0.72167,0.5998 -5.19237,2.8459 -6.80912,3.42093 -1.83872,0.65398 -0.92867,0.65835 1.1844,0.006 z m -7.31526,-2.10192 c 4.82791,-0.84538 8.72468,-2.03686 10.05417,-3.07416 0.49955,-0.38977 0.52787,-0.71207 0.50592,-5.75909 -0.0196,-4.50645 -0.40809,-8.91809 -0.78534,-8.91809 -0.048,0 -0.492,0.23883 -0.98674,0.53073 -2.31712,1.36714 -8.56999,2.93254 -13.81509,3.4586 -3.724965,0.3736 -9.888415,0.19085 -13.758335,-0.40795 -4.39592,-0.68018 -9.45344,-2.12003 -10.77105,-3.06645 -0.90017,-0.64658 -1.0029,-0.64334 -1.0029,0.0316 0,0.30061 -0.13525,0.79929 -0.30057,1.10818 -0.35952,0.67177 -0.3387,11.77955 0.0239,12.73317 0.40213,1.05769 4.63164,2.45231 10.06627,3.31922 4.76746,0.76048 4.83503,0.76447 11.50938,0.67852 4.725375,-0.0608 6.795005,-0.20261 9.260415,-0.63431 z M 89.338115,197.15085 c -5.61987,-0.53538 -13.18042,-2.58342 -14.54263,-3.93937 -0.5885,-0.5858 0.005,-0.46569 1.87219,0.37889 2.46382,1.11443 4.99423,1.80678 8.99582,2.46136 4.66932,0.76381 13.173753,0.82744 17.553855,0.13135 4.56012,-0.7247 8.30236,-1.78577 10.36602,-2.93918 0.86123,-0.48135 1.15474,-0.55098 1.15474,-0.27394 0,0.71525 -4.29166,2.37278 -8.13112,3.14042 -5.16006,1.03166 -12.634255,1.48199 -17.268875,1.04047 z m 27.522715,6.11011 c 0.14165,-0.37256 0.35132,-0.61943 0.46593,-0.54859 0.11461,0.0708 0.22665,-0.0708 0.24899,-0.31481 0.0223,-0.24398 0.11826,-0.97938 0.21316,-1.63422 0.12962,-0.89444 0.0306,-1.56784 -0.39792,-2.70695 -0.31376,-0.83398 -0.68182,-1.58515 -0.81792,-1.66926 -0.14922,-0.0922 -0.24746,1.37622 -0.24746,3.69913 0,2.11864 0.0625,3.85208 0.13885,3.85208 0.0764,0 0.25473,-0.30482 0.39637,-0.67738 z m -15.35188,-8.87624 c 4.63284,-0.54187 8.66715,-1.58242 10.98823,-2.83415 1.68909,-0.91091 1.70403,-1.07432 0.64895,-7.09729 -0.87977,-5.02224 -2.63383,-16.13234 -2.63854,-16.71233 -0.002,-0.19049 -0.12064,-0.27352 -0.26465,-0.18451 -1.11837,0.69119 -11.066552,1.97312 -15.348575,1.97784 -4.341,0.005 -13.61708,-1.03403 -15.42359,-1.72725 -0.24828,-0.0953 -0.4514,-0.10307 -0.4514,-0.0173 0,1.77017 -1.81055,13.18411 -3.18652,20.08822 -0.53786,2.69877 -0.12414,3.38333 2.65773,4.39765 6.26586,2.28465 14.81801,3.06828 23.018365,2.10915 z m -13.229175,-0.50591 c -4.34501,-0.50456 -10.72905,-2.25703 -11.67762,-3.20561 -0.43731,-0.43731 -0.50707,-0.73078 -0.35901,-1.51018 1.0812,-5.69132 2.46055,-13.91392 2.88557,-17.20155 0.21366,-1.65275 0.44748,-3.06399 0.51959,-3.13611 0.0721,-0.0721 1.59721,0.12235 3.38911,0.43213 7.80967,1.35012 15.834443,1.31504 23.356785,-0.10212 1.88652,-0.3554 3.47163,-0.6046 3.52246,-0.55376 0.0508,0.0508 0.31597,1.62278 0.58919,3.49322 0.27322,1.87044 1.0396,6.5933 1.70306,10.49525 0.66346,3.90195 1.20629,7.26697 1.20629,7.47782 0,0.75324 -4.01317,2.24739 -8.59896,3.20149 -2.68313,0.55824 -4.05626,0.67447 -8.863545,0.75021 -3.1287,0.0493 -6.58151,-0.0141 -7.67292,-0.14079 z m 10.186463,-25.12873 c 3.547072,-0.3203 8.177542,-0.96908 10.318752,-1.44577 2.18352,-0.48611 1.28146,-0.49281 -1.45521,-0.0108 -8.144912,1.43452 -14.951195,1.65095 -21.431255,0.68148 -2.11005,-0.31568 -4.4615,-0.73566 -5.22544,-0.93329 -0.76394,-0.19762 -1.44759,-0.26448 -1.51922,-0.14857 -0.0716,0.11591 0.25574,0.26977 0.72751,0.34191 0.47178,0.0721 1.89936,0.32717 3.17241,0.56672 5.74573,1.0812 10.61994,1.38111 15.412453,0.94834 z m 4.894792,-1.34829 c 6.01383,-0.8284 7.02047,-1.07395 6.96311,-1.69848 -0.0266,-0.28954 -0.18975,-1.95518 -0.36259,-3.70143 -0.17283,-1.74625 -0.39281,-9.18766 -0.48884,-16.53646 -0.14893,-11.39646 -0.23666,-13.50048 -0.5965,-14.30674 -1.10137,-2.4677 -3.33656,-3.84534 -7.49955,-4.62228 -3.253922,-0.60728 -11.215815,-0.41837 -14.189025,0.33666 -3.13843,0.79699 -5.51505,2.48469 -6.38294,4.53269 -0.19515,0.46051 -0.36193,5.15691 -0.48988,13.79509 -0.1067,7.20328 -0.3205,14.16843 -0.47512,15.47812 -0.15462,1.30969 -0.35775,3.1097 -0.4514,4.00003 l -0.17028,1.61878 0.76057,0.13654 c 0.41831,0.0751 1.7726,0.32041 3.00953,0.54515 7.01796,1.2751 13.24503,1.40419 20.372915,0.42233 z m -9.918205,-3.67606 c -0.37265,-0.41178 -0.44291,-0.79786 -0.32555,-1.78881 0.19588,-1.6539 1.21444,-4.35593 1.59428,-4.22931 0.43846,0.14615 1.51779,2.99501 1.692,4.466 0.0993,0.8382 0.0369,1.41146 -0.18238,1.67565 -0.4914,0.5921 -2.19944,0.51616 -2.77835,-0.12353 z m 1.9756,-1.65771 c -0.007,-1.13604 -0.64242,-3.5595 -0.84689,-3.22866 -0.28053,0.45391 -0.76717,3.55869 -0.60014,3.82895 0.0882,0.14278 0.45108,0.25961 0.80629,0.25961 0.5533,0 0.64511,-0.12321 0.64074,-0.8599 z M 83.290165,140.1926 c -2.00601,-0.24229 -2.15445,-0.53442 -2.15266,-4.2366 8.1e-4,-1.68206 0.12445,-3.50108 0.27475,-4.04226 0.30229,-1.08846 1.32547,-2.4372 2.19971,-2.89963 0.34695,-0.18352 0.14104,0.16439 -0.5309,0.89701 -1.38634,1.51155 -1.79421,3.15172 -1.63127,6.55985 0.15943,3.33446 0.27894,3.42838 4.4119,3.46692 1.69375,0.0158 3.79392,0.11735 4.66704,0.22568 1.23125,0.15277 0.75624,0.19734 -2.11667,0.19861 -2.03729,9.1e-4 -4.34214,-0.0754 -5.1219,-0.16958 z m 15.925273,0.0841 c 0.12102,-0.1294 1.992202,-0.2948 4.158172,-0.36756 5.10935,-0.17164 4.89762,0.0203 4.83593,-4.38392 -0.0392,-2.79617 -0.13519,-3.48811 -0.62435,-4.49858 -1.0063,-2.07873 -3.92885,-3.38374 -8.484082,-3.78839 l -2.486953,-0.22092 1.875903,-0.0364 c 2.393482,-0.0464 5.613582,0.76601 7.451812,1.88009 1.05594,0.63997 1.56097,1.17164 2.05538,2.16377 0.59493,1.19387 0.65545,1.62811 0.65545,4.70296 0,4.19261 -0.15404,4.44521 -2.71198,4.44733 -0.90951,7.6e-4 -2.84427,0.0769 -4.29948,0.16912 -1.5406,0.0977 -2.553922,0.0695 -2.425802,-0.0675 z m -23.324913,36.74028 c 0.11547,-1.12778 0.44076,-3.30067 0.72287,-4.82864 1.05202,-5.69805 1.27913,-9.23035 1.50547,-23.41563 0.29396,-18.42283 -0.42978,-26.80792 -3.1999,-37.07313 -0.50584,-1.87446 -1.17451,-4.36062 -1.48594,-5.52479 -0.311445,-1.16416 -0.928655,-3.36682 -1.371585,-4.89478 -0.57749,-1.992147 -0.83787,-3.529227 -0.92035,-5.432967 l -0.11501,-2.65484 0.90081,-1.18162 c 2.213355,-2.90329 11.793595,-5.64085 20.983095,-5.99592 9.433795,-0.3645 20.632075,2.14787 24.308115,5.45361 2.24303,2.01709 1.9621,5.26925 -1.43038,16.558607 -1.81756,6.04838 -2.88757,11.35794 -3.73241,18.52083 -0.19524,1.65536 -0.33781,8.22581 -0.38085,17.55146 -0.0378,8.1981 -0.11852,14.95537 -0.1793,15.01615 -0.0608,0.0608 -0.18967,-4.83682 -0.28641,-10.88356 -0.33654,-21.03438 0.36906,-27.30656 4.96936,-44.17363 0.51596,-1.89177 1.12708,-4.434997 1.35804,-5.651627 l 0.41994,-2.21205 -0.74285,-0.77538 c -1.11679,-1.16567 -2.76421,-1.98465 -6.29481,-3.12931 -7.74301,-2.51038 -16.180005,-3.28628 -23.075385,-2.1221 -10.21489,1.72463 -15.967425,4.02366 -15.967425,6.38147 0,0.3995 0.36928,2.1334 0.82062,3.853097 0.45135,1.7197 1.228705,4.67454 1.727455,6.56631 2.08436,7.90604 3.34677,15.07781 3.79572,21.56355 0.33473,4.8357 0.34218,25.87111 0.0113,32.01458 -0.23391,4.34352 -2.07165,18.52083 -2.40078,18.52083 -0.0822,0 -0.0549,-0.92273 0.0606,-2.05052 z m 1.60128,-84.857927 c 2.32876,-0.87212 3.31757,-1.14363 9.16168,-2.51564 2.28533,-0.53652 2.97388,-0.57222 8.99583,-0.46647 7.337535,0.12886 10.036985,0.5572 16.052435,2.54715 1.68729,0.55817 2.95607,0.90312 2.8195,0.76655 -0.13657,-0.13657 -1.12591,-0.52687 -2.19853,-0.86733 -1.07263,-0.34047 -1.7121,-0.64361 -1.42106,-0.67366 0.29104,-0.0301 0.0529,-0.14359 -0.52917,-0.25232 -3.16919,-0.59201 -7.40716,-1.64999 -7.84898,-1.95946 -1.03668,-0.72611 0.61149,-0.68477 3.87045,0.0971 3.70387,0.8886 7.83205,2.5166 9.68465,3.81925 0.22794,0.16028 -0.0697,-0.15474 -0.66146,-0.70005 -0.59175,-0.54531 -1.19497,-0.99253 -1.34049,-0.99382 -0.14552,-0.001 -0.5913,-0.17277 -0.99061,-0.38108 -1.78067,-0.92889 -8.33429,-2.793 -9.81933,-2.793 -0.31993,0 -0.85399,0.19072 -1.1868,0.42383 -0.51205,0.35865 -1.62795,0.42985 -7.256815,0.46302 -6.64532,0.0392 -6.6523,0.0386 -7.27074,-0.57991 -0.37885,-0.3789 -0.78544,-0.55526 -1.04791,-0.45453 -0.23588,0.0905 -1.77182,0.45492 -3.41319,0.8098 -4.46663,0.96572 -8.71027,2.56422 -9.889525,3.7252 -0.21652,0.21317 0.438325,-0.017 1.455215,-0.51148 2.08588,-1.01431 5.19491,-2.07317 7.9172,-2.6964 3.50382,-0.80215 4.08376,-0.86612 4.57766,-0.50497 0.25612,0.18728 0.40357,0.40261 0.32767,0.47851 -0.0759,0.0759 -1.56399,0.43725 -3.30687,0.80301 -3.39821,0.71314 -5.3247,1.33097 -7.89764,2.5328 -2.2118,1.03314 -1.72883,0.98706 1.21683,-0.11609 z m 20.102963,-4.83407 c -1.061393,-0.0504 -2.728273,-0.05 -3.704173,7.6e-4 -0.9759,0.0508 -0.10748,0.092 1.92981,0.0915 2.037293,-4.2e-4 2.835753,-0.0419 1.774363,-0.0923 z m 5.633972,35.241667 c -4.157642,-0.4123 -13.166335,-0.47135 -18.311095,-0.12002 -2.06745,0.14118 -3.94775,0.18426 -4.17845,0.0957 -0.96009,-0.36841 -1.98441,-3.60848 -1.98441,-6.27692 0,-1.17684 0.11277,-1.49885 0.7276,-2.07771 1.5922,-1.49903 5.91329,-2.32388 13.16302,-2.51267 7.528325,-0.19605 13.592175,0.55101 16.705395,2.0581 1.53926,0.74514 1.91631,1.89655 1.47114,4.49254 -0.43697,2.54824 -1.03458,3.90333 -1.92431,4.36343 -0.85302,0.44111 -1,0.44052 -5.66889,-0.0225 z m -16.008935,-0.53784 c 2.54752,-0.0874 6.41779,-0.17789 8.6006,-0.20121 3.137443,-0.0335 3.953523,-0.11578 3.896053,-0.39278 -0.04,-0.19272 0.04,-0.28077 0.17767,-0.19566 0.137702,0.0851 0.426242,-0.1978 0.641192,-0.62868 0.28193,-0.56515 0.30615,-0.81812 0.0869,-0.90794 -0.16715,-0.0685 -0.0956,-0.13391 0.15911,-0.1454 0.25467,-0.0115 0.46303,-0.18932 0.46303,-0.39519 0,-0.55645 -3.057632,-0.76586 -8.910725,-0.61026 -3.99809,0.10628 -5.72325,0.27886 -8.75022,0.8753 -4.12523,0.81285 -4.30018,0.94302 -3.00637,2.23683 0.53672,0.53672 0.94939,0.72823 1.38743,0.64388 0.34291,-0.066 2.70781,-0.19154 5.25532,-0.27889 z m -5.14535,-2.74272 c 3.47277,-0.75463 7.23762,-1.0731 12.6495,-1.07002 6.752825,0.004 12.725815,0.59154 14.811925,1.4574 0.40197,0.16685 0.47079,0.094 0.39687,-0.41993 -0.1072,-0.74534 -0.43721,-0.82914 -5.64568,-1.43358 -7.053702,-0.81858 -20.219985,-0.37286 -24.275525,0.82181 -0.36318,0.10698 -0.71217,1.15907 -0.38448,1.15907 0.0432,0 1.14452,-0.23164 2.44739,-0.51475 z m 3.14771,-1.76623 c 5.27018,-0.5774 15.247255,-0.58563 19.594075,-0.0162 1.74625,0.22877 3.71078,0.48488 4.36563,0.56913 0.86227,0.11094 1.03655,0.0846 0.63194,-0.0957 -0.6363,-0.28342 -0.94156,-1.11932 -0.60357,-1.65277 0.12546,-0.19801 0.23175,-0.24096 0.23621,-0.0954 0.0111,0.36366 0.52007,-0.45246 0.52511,-0.84206 0.002,-0.1721 -0.23407,-0.38848 -0.52511,-0.48086 -0.29104,-0.0924 -0.52917,-0.34554 -0.52917,-0.56261 0,-0.21706 -0.11906,-0.32107 -0.26458,-0.23114 -0.14552,0.0899 -0.26458,0.0563 -0.26458,-0.0748 0,-0.60324 -6.82062,-1.8554 -11.377092,-2.08866 -5.600203,-0.28669 -14.074473,0.69414 -16.403623,1.89859 -1.45086,0.75028 -1.96786,2.27409 -1.3357,3.93685 0.22872,0.60156 0.33263,0.6407 1.10958,0.41787 0.47147,-0.13522 2.64987,-0.44225 4.84088,-0.68229 z m -8.54474,-4.58381 c 0.22354,-0.67061 4.91596,-1.91015 10.14714,-2.68046 8.09,-1.19127 19.151385,-0.19354 25.695675,2.31774 0.20119,0.0772 0.36579,0.0232 0.36579,-0.11994 0,-0.70594 -4.80554,-2.05123 -10.31875,-2.88866 -4.057462,-0.61632 -11.966135,-0.61112 -16.007295,0.0105 -2.88633,0.444 -8.52604,1.82427 -9.4295,2.30778 -0.63011,0.33723 -0.78058,0.0111 -1.77895,-3.85615 -0.45082,-1.74625 -1.23873,-4.78177 -1.75092,-6.7456 -1.096605,-4.204597 -1.117385,-4.515457 -0.33593,-5.023537 2.84988,-1.85289 10.85211,-4.40798 15.68738,-5.00892 l 2.10584,-0.26172 -2.13094,0.12123 c -4.52442,0.25741 -13.84437,3.10148 -15.796195,4.82036 -0.25556,0.22505 -0.55303,0.3208 -0.66105,0.21278 -0.4954,-0.4954 3.885805,-2.67064 7.449355,-3.69855 12.09028,-3.48745 24.091245,-2.84869 34.534915,1.83815 0.86072,0.38627 1.84074,0.99589 2.17784,1.35471 0.58707,0.62491 0.54227,0.61735 -1.06358,-0.17939 -6.40589,-3.17829 -13.66129,-4.80668 -21.018165,-4.71728 l -3.49218,0.0424 4.63021,0.19091 c 2.546613,0.105 5.820835,0.3946 7.276045,0.64356 4.42299,0.75671 12.89027,3.81127 13.86932,5.00335 0.44659,0.54377 0.19801,1.77593 -1.86314,9.235057 -0.71532,2.58869 -1.42973,5.30888 -1.58757,6.04487 -0.32856,1.53204 -0.0398,1.50078 -3.73477,0.40442 -8.65303,-2.56748 -21.171985,-2.58957 -29.904145,-0.0528 -1.19883,0.34828 -2.4043,0.72017 -2.67881,0.82643 -0.34529,0.13366 -0.46476,0.0901 -0.38762,-0.14132 z m 49.034795,74.5434 c 0.24681,-2.22116 0.40298,-6.0406 0.40298,-9.85573 0,-5.36062 -0.0553,-6.22913 -0.39688,-6.22913 -0.3157,0 -0.39816,0.39231 -0.40316,1.91823 -0.01,3.00639 -0.48508,18.171 -0.63305,20.20038 l -0.13315,1.82618 0.38014,-2.11667 c 0.20908,-1.16416 0.56148,-3.74863 0.78312,-5.74326 z m -61.07256,2.89899 c -0.0949,-2.07367 -0.25125,-7.19336 -0.3474,-11.37708 -0.16434,-7.15095 -0.36038,-8.85606 -0.76825,-6.68191 -0.33079,1.76327 0.0473,14.14413 0.55146,18.05899 0.26706,2.07367 0.54209,3.77031 0.61117,3.77031 0.0691,0 0.0479,-1.69664 -0.047,-3.77031 z m 7.10894,-10.05417 c 0.10519,-1.05502 0.52409,-3.28744 0.93088,-4.96093 1.437315,-5.913 2.350995,-14.70607 2.559205,-24.62939 0.1773,-8.45015 0.57357,-7.50339 -3.321475,-7.93543 -3.42474,-0.37988 -3.74576,-0.45644 -3.74576,-0.89338 0,-0.27081 0.23925,-0.34279 0.8599,-0.25871 2.4844,0.33656 6.113815,0.63764 6.234285,0.51717 0.27088,-0.27088 -0.1258,-0.36009 -3.344635,-0.75214 -1.79405,-0.21851 -3.33194,-0.46732 -3.41754,-0.55292 -0.37072,-0.37072 0.26833,-0.47139 1.31405,-0.20699 0.62264,0.15742 2.11433,0.35523 3.31488,0.43957 l 2.182815,0.15335 v -1.85828 -1.85827 H 71.61103 67.90687 l 0.008,11.70781 c 0.009,13.26359 0.20323,16.17728 1.72079,25.86302 0.47486,3.03074 1.4728,7.14375 1.73329,7.14375 0.10346,0 0.27419,-0.8632 0.37939,-1.91823 z m -1.26623,-4.70945 c -1.0506,-7.12383 -1.16938,-6.2682 1.00778,-7.25945 l 1.863485,-0.84844 -0.215125,2.00786 c -0.11832,1.10432 -0.4625,3.02084 -0.76484,4.25893 -0.30233,1.23809 -0.68957,3.25721 -0.86053,4.48694 l -0.31083,2.23586 z m -1.08266,-7.59892 c -0.0692,-0.11203 -0.20863,-1.04341 -0.30976,-2.06974 l -0.18387,-1.86605 1.6832,-0.54638 c 0.92577,-0.30052 2.06915,-0.62853 2.54086,-0.72892 l 0.857655,-0.18253 -0.14429,1.2773 c -0.34716,3.07319 -0.23692,2.88339 -2.110215,3.63332 -1.8425,0.7376 -2.13838,0.79884 -2.33358,0.483 z m -0.78831,-9.90458 c -0.0957,-2.95342 -0.17429,-7.54275 -0.17467,-10.1985 -6.4e-4,-4.42746 0.0378,-4.82759 0.46233,-4.81584 0.35425,0.01 5.489465,0.68462 5.820835,0.76491 0.27024,0.0655 -0.2686,16.20729 -0.58828,17.62277 -0.0976,0.43213 -0.56357,0.6499 -2.313585,1.08119 -1.20525,0.29704 -2.38066,0.62451 -2.61201,0.7277 -0.37379,0.16673 -0.44001,-0.41037 -0.59462,-5.18223 z m 50.71636,20.03014 c 1.21254,-6.04903 1.99359,-11.2722 2.27497,-15.21354 0.30184,-4.22783 0.38989,-52.09664 0.10556,-57.38467 -0.0955,-1.7755 -0.27146,-3.1303 -0.39109,-3.01067 -0.11963,0.11963 -0.24988,2.56095 -0.28944,5.42515 l -0.0719,5.20763 -0.80818,-0.51196 -0.80818,-0.51196 0.1989,-1.7927 c 0.10939,-0.98598 0.26152,-2.7452 0.33806,-3.90936 l 0.13917,-2.11667 -0.51482,2.51354 c -0.46324,2.26171 -1.18208,4.40822 -1.59491,4.7625 -0.78453,0.67328 -3.43169,18.07004 -3.43217,22.55573 l -1.6e-4,1.52136 2.57969,-0.0264 c 2.41858,-0.0247 4.70001,-0.36656 3.37344,-0.50545 -0.29105,-0.0305 -1.60073,-0.0721 -2.91042,-0.0925 l -2.38125,-0.0371 0.0658,-2.51354 c 0.0867,-3.31395 0.7162,-8.58124 1.70739,-14.2875 0.44236,-2.54662 0.86246,-5.01716 0.93356,-5.49011 0.0711,-0.47294 0.17498,-0.85989 0.23083,-0.85989 0.0559,0 0.75675,0.50601 1.55755,1.12448 l 1.45599,1.12447 10e-4,11.17865 0.001,11.17865 -1.91822,0.002 c -2.57632,0.003 -4.69636,0.27596 -4.69636,0.60447 0,0.17674 1.17526,0.209 3.43958,0.0944 2.24125,-0.11344 3.43959,-0.0816 3.43959,0.0915 0,0.15659 -0.90796,0.26562 -2.21203,0.26562 -1.21662,0 -2.76443,0.0757 -3.43959,0.16825 l -1.22755,0.16826 v 1.71787 1.71787 l 2.97656,-0.18175 c 1.63711,-0.1 3.18493,-0.24236 3.43959,-0.31645 0.25466,-0.0741 0.46302,-0.0299 0.46302,0.0983 0,0.12816 -1.51343,0.37564 -3.36318,0.54997 -1.84975,0.17432 -3.48091,0.43468 -3.62479,0.57857 -0.3357,0.3357 -0.36716,0.33714 3.49008,-0.16026 1.79933,-0.23202 3.34428,-0.3491 3.43321,-0.26017 0.36778,0.36778 -0.48602,0.65345 -3.21179,1.0746 -1.58378,0.2447 -3.0423,0.50734 -3.24115,0.58365 -0.80984,0.31076 -0.24543,16.70937 0.82696,24.02692 0.23459,1.60072 0.71021,4.33916 1.05694,6.08541 0.34672,1.74625 0.7135,4.04226 0.81505,5.10225 0.10156,1.05999 0.23501,1.87689 0.29657,1.81534 0.34905,-0.34905 0.0296,-4.41179 -0.54565,-6.93902 -0.36166,-1.58894 -0.73827,-3.44979 -0.83691,-4.13522 l -0.17935,-1.24623 1.81356,0.51863 c 0.99745,0.28524 1.8437,0.51863 1.88054,0.51863 0.17388,0 0.0106,1.65574 -0.35234,3.57187 -0.57893,3.05691 -1.42624,8.38022 -1.42975,8.98261 -0.008,1.28984 0.51389,-0.26763 1.14706,-3.42636 z m -1.01777,-10.26787 c -1.01865,-0.27588 -1.88948,-0.5368 -1.93519,-0.57983 -0.0896,-0.0844 -0.82085,-4.4818 -0.75209,-4.52291 0.0228,-0.0136 1.20265,0.16445 2.6219,0.39573 l 2.58046,0.4205 -0.16807,2.11782 c -0.0924,1.1648 -0.24162,2.24212 -0.3315,2.39405 -0.10908,0.18438 -0.77933,0.10944 -2.01551,-0.22536 z m 1.85208,-4.93772 c -0.29104,-0.10451 -1.4519,-0.34449 -2.57968,-0.53328 -1.93952,-0.32469 -2.05053,-0.38026 -2.05053,-1.02637 0,-0.3757 -0.11551,-2.59128 -0.25669,-4.92351 -0.35323,-5.83499 -0.49443,-11.95107 -0.28378,-12.2919 0.12641,-0.20454 5.22452,-1.34122 6.01547,-1.34122 0.1791,0 0.0595,19.73228 -0.12123,20.00887 -0.11256,0.17223 -0.41714,0.21744 -0.72356,0.10741 z m 5.7898,3.65855 c -0.0232,-2.77163 -0.12355,-3.8022 -0.39688,-4.07558 -0.31139,-0.31146 -0.35594,0.25283 -0.29937,3.7919 0.0366,2.28679 0.0663,4.27091 0.0661,4.40916 -1.7e-4,0.13824 0.14852,0.10125 0.33042,-0.0822 0.2362,-0.23823 0.32185,-1.39386 0.29969,-4.04326 z m -61.43203,0.16955 c 0.0439,-2.11028 0.0143,-3.83669 -0.0658,-3.83646 -0.60676,0.002 -0.78053,0.88732 -0.78053,3.97798 0,3.17426 0.0789,3.69535 0.55967,3.69535 0.1138,0 0.24278,-1.72659 0.28664,-3.83687 z m 2.41529,2.74772 1.01264,-0.32978 -0.16355,-1.73793 c -0.09,-0.95587 -0.22566,-14.98364 -0.30157,-31.17283 -0.13227,-28.2081 -0.15803,-29.4349 -0.61825,-29.4349 -0.61104,0 -0.97267,0.45139 -1.16585,1.45521 -0.084,0.43656 -0.18706,6.54986 -0.22899,13.58511 -0.0419,7.03524 -0.15955,12.84287 -0.26138,12.90584 -0.10183,0.063 0.0768,0.55763 0.39687,1.09927 0.50152,0.84856 0.58203,1.37436 0.58203,3.80127 0,2.31189 -0.083,2.90823 -0.46337,3.32852 -0.42386,0.46836 -0.46,1.27162 -0.42383,9.42048 0.0324,7.28884 0.10458,8.90847 0.39723,8.90847 0.19672,0 0.35767,-0.10632 0.35767,-0.23628 0,-0.12995 0.20836,-0.30786 0.46303,-0.39536 0.25466,-0.0875 0.0761,0.17632 -0.39688,0.58627 l -0.8599,0.74537 v 4.03767 c 0,3.1269 0.0746,4.00674 0.33073,3.90053 0.1819,-0.0754 0.78642,-0.28555 1.34337,-0.46693 z m 57.47172,-12.801 c -0.006,-7.20303 -0.0915,-13.09662 -0.18936,-13.09688 -0.38147,-0.001 -0.80876,-2.00312 -0.83886,-3.9305 -0.0433,-2.7748 0.22068,-3.90868 0.95715,-4.1106 0.42965,-0.11781 0.49698,-0.2208 0.2491,-0.38104 -0.18694,-0.12085 -0.26344,-0.4183 -0.17013,-0.66147 0.0933,-0.24302 0.0675,-0.44181 -0.0572,-0.44175 -0.12471,6e-5 -0.18939,-5.03033 -0.14374,-11.17865 0.0457,-6.14831 0.007,-12.13824 -0.0857,-13.31093 -0.16235,-2.05212 -0.19776,-2.14316 -0.9429,-2.42442 l -0.77422,-0.29223 v 26.68552 c 0,23.42549 -0.113,29.5905 -0.63082,34.41555 -0.0996,0.92838 -0.0691,0.96512 1.1241,1.35135 0.67458,0.21837 1.29119,0.414 1.37025,0.43474 0.0791,0.0207 0.13858,-5.85567 0.13229,-13.05869 z m -59.99939,-4.00698 c -0.0534,-7.0815 0.007,-9.61973 0.22995,-9.61965 0.4959,1.8e-4 0.62384,-0.70088 0.61957,-3.39497 -0.004,-2.31839 -0.2566,-3.57621 -0.64168,-3.19113 -0.32274,0.32274 -0.30862,4.78799 0.0171,5.41588 0.35298,0.68038 0.15229,0.85276 -0.37681,0.32366 -0.40688,-0.40687 -0.39685,-0.66764 -0.42602,11.07675 -0.0192,7.72271 0.0412,9.51467 0.31328,9.28892 0.26419,-0.21924 0.32139,-2.35919 0.26458,-9.89946 z m 61.6099,-1.20474 c -0.0295,-9.33181 -0.0803,-10.65444 -0.35283,-9.19427 -0.44613,2.38984 -0.46805,19.33409 -0.0256,19.77655 0.17462,0.17463 0.33896,0.3175 0.36519,0.3175 0.0262,0 0.0322,-4.9049 0.0132,-10.89978 z m -0.97909,-12.29576 c 0.0197,-2.00993 -0.14992,-2.82423 -0.5383,-2.5842 -0.28038,0.17329 -0.32309,4.96782 -0.0467,5.2442 0.33554,0.33554 0.56591,-0.71192 0.58501,-2.66 z m 0.89499,-0.55078 c -0.0273,-0.98228 -0.0571,-8.62611 -0.0661,-16.98628 -0.0121,-11.13878 -0.095,-15.12183 -0.31022,-14.90659 -0.21106,0.21107 -0.26581,4.89786 -0.19455,16.65552 0.0843,13.90061 0.18881,17.02303 0.57003,17.02329 0.0278,2e-5 0.0282,-0.80365 8.9e-4,-1.78594 z m -50.684205,-1.64552 c 0.0364,-0.004 0.0661,-0.12355 0.0661,-0.2646 0,-0.14753 -1.37649,-0.28799 -3.241155,-0.33073 l -3.24114,-0.0743 -0.0679,-11.1125 -0.0679,-11.1125 1.36075,-1.00906 c 0.74842,-0.55498 1.45307,-0.91217 1.56589,-0.79375 0.76113,0.79893 3.131905,17.00521 3.156945,21.58042 l 0.005,0.99219 H 71.87523 c -1.60073,0 -2.91042,0.10589 -2.91042,0.23531 0,0.24219 5.771075,0.56474 6.183455,0.3456 0.27399,-0.14559 0.007,-5.2571 -0.50723,-9.70904 -0.57862,-5.00988 -1.612575,-10.69313 -2.661785,-14.6308 -0.53131,-1.994 -1.08758,-4.16123 -1.23616,-4.81607 -0.14858,-0.65485 -0.31597,-1.05914 -0.37196,-0.89843 -0.056,0.16071 0.14045,1.37984 0.43656,2.70918 0.2961,1.32934 0.53837,2.64615 0.53837,2.92625 0,0.32621 -0.47555,0.80188 -1.32292,1.32327 l -1.32291,0.814 v -2.20444 c 0,-1.21245 -0.0854,-4.03908 -0.18988,-6.28141 -0.35159,-7.549117 -0.55659,-2.10466 -0.58069,15.42223 l -0.0232,16.85336 1.38906,0.11174 c 1.02483,0.0824 5.089495,0.0306 5.953125,-0.0759 z M 65.04257,135.85722 c -0.57239,-0.60929 -0.57542,-0.67277 -0.60155,-12.63385 -0.0144,-6.61182 -0.10545,-13.03352 -0.20225,-14.27045 l -0.176,-2.24896 -0.16792,1.98438 c -0.0924,1.0914 -0.136,6.15156 -0.097,11.24479 0.1283,16.75011 0.10503,16.0042 0.49473,15.85465 0.19497,-0.0748 0.5072,0.048 0.69386,0.27289 0.18665,0.2249 0.40508,0.40892 0.48538,0.40892 0.0803,0 -0.11286,-0.27557 -0.42927,-0.61237 z m 54.45461,-33.71742 c 0.42134,-1.63716 0.83335,-3.085507 0.91557,-3.218537 0.0822,-0.13304 -8e-5,-0.30279 -0.18288,-0.37723 -0.22679,-0.0924 -0.13482,-0.29538 0.28952,-0.63911 0.5632,-0.45621 0.64777,-0.82599 0.89584,-3.91703 0.34371,-4.2826 -0.11967,-16.34193 -0.72491,-18.86545 -0.88789,-3.70203 -2.50755,-7.16885 -5.27035,-11.28098 -3.67627,-5.47171 -6.44373,-8.97675 -7.61761,-9.64783 l -0.98263,-0.56174 1.46329,2.37911 c 1.86868,3.03821 2.92464,5.50489 5.16438,12.0638 1.89034,5.53571 3.44248,11.38945 4.5601,17.19791 0.364,1.89178 0.87527,4.51115 1.13615,5.82084 0.26089,1.30969 0.51419,3.76275 0.5629,5.45126 0.076,2.63389 -0.005,3.40442 -0.5677,5.423957 -0.74986,2.68972 -1.50107,6.83991 -1.46773,8.10875 0.0124,0.47287 0.256,-0.44991 0.54129,-2.05064 0.28528,-1.60073 0.86343,-4.24992 1.28477,-5.88708 z m -56.88198,3.05213 c 1.48634,-0.36396 3.42939,-1.31577 4.01958,-1.96901 0.45609,-0.50481 0.98934,-2.36531 1.00104,-3.492567 0.005,-0.44698 -0.10596,-0.58049 -0.39041,-0.47133 -0.21828,0.0838 -0.39688,0.037 -0.39688,-0.10398 0,-0.14096 0.18562,-0.25628 0.41249,-0.25628 0.22687,0 0.34329,-0.11198 0.25871,-0.24883 -0.16735,-0.27078 -3.70698,2.157397 -5.117762,3.510767 -0.833759,0.79983 -2.4326,3.06538 -2.4326,3.44699 0,0.18428 0.545348,0.0986 2.645832,-0.41576 z m 66.67401,0.12297 c -0.002,-0.46869 -1.19395,-2.08935 -2.48687,-3.38226 -1.19432,-1.19432 -4.14637,-3.033877 -4.86865,-3.033877 -0.26614,0 0.0391,2.464457 0.42898,3.463037 0.40921,1.04819 1.77548,2.04409 3.43939,2.50703 0.82707,0.23011 1.62282,0.45986 1.76835,0.51056 0.50949,0.17749 1.71978,0.13208 1.7188,-0.0645 z M 64.44869,94.108533 c 0.0213,-4.736 0.3457,-9.24782 1.07272,-14.92123 0.27973,-2.18281 0.57925,-5.15938 0.66563,-6.61459 0.1473,-2.48174 0.13155,-2.60151 -0.25384,-1.93122 -0.78891,1.37214 -2.4062,13.56841 -2.34365,17.67393 0.0759,4.98202 0.43543,10.94214 0.63043,10.45104 0.11556,-0.29104 0.21848,-2.38711 0.22871,-4.65793 z m 61.40474,-0.93862 c 0.26481,-6.32645 -0.0955,-11.67883 -1.17277,-17.4222 -0.90912,-4.8468 -0.98226,-5.15011 -1.28744,-5.33872 -0.36969,-0.22848 -0.0684,3.84254 0.61047,8.24914 0.53535,3.47496 1.2972,13.9981 1.31052,18.10191 0.0129,3.986027 0.30291,2.05549 0.53922,-3.59013 z m -56.29292,5.09595 c 0.37689,-0.2861 0.46302,-0.76852 0.46302,-2.59329 0,-2.03914 0.3449,-4.7626 0.73066,-5.76965 0.0836,-0.21828 0.14237,-0.99218 0.13056,-1.71979 l -0.0215,-1.32292 0.20403,1.05834 0.20404,1.05833 0.0375,-1.00966 c 0.0591,-1.58912 2.112805,-10.57087 3.217515,-14.07159 1.64808,-5.22258 4.35194,-12.84468 5.22323,-14.72415 0.44865,-0.96776 1.31553,-2.55096 1.92641,-3.51822 0.61088,-0.96726 1.05594,-1.81339 0.98904,-1.8803 -0.30308,-0.30308 -2.35072,1.57561 -3.51404,3.22409 -0.70536,0.99953 -1.68662,2.27327 -2.18058,2.83053 -1.37963,1.55643 -4.481285,6.38429 -5.641405,8.7811 -1.41317,2.91959 -2.3238,6.0867 -2.66129,9.2557 -0.44917,4.21766 -0.43577,18.4451 0.0195,20.70365 0.033,0.16361 0.44952,0.0195 0.87323,-0.30217 z m 54.83469,-6.97387 c -0.16589,-6.36246 -0.51099,-10.90682 -0.95646,-12.59492 -0.14796,-0.56067 -0.42447,-2.22755 -0.61448,-3.70417 -0.32876,-2.55495 -0.34711,-2.60543 -0.37935,-1.04403 -0.0186,0.9024 -0.19135,2.27162 -0.38382,3.04271 -0.26226,1.05067 -0.30098,2.42958 -0.15455,5.50301 0.10746,2.25557 0.2054,6.18598 0.21765,8.73424 l 0.0223,4.63319 1.12448,0.70413 c 0.61846,0.38727 1.15974,0.71335 1.20285,0.72462 0.0431,0.0113 0.008,-2.68819 -0.0786,-5.99878 z m -56.73947,0.10092 c 0.007,-2.6385 0.0641,-5.27353 0.12611,-5.85561 0.062,-0.58209 0.16516,-2.66568 0.22932,-4.63021 0.10294,-3.15162 0.0495,-3.77098 -0.45421,-5.26414 l -0.57088,-1.69227 -0.17992,1.03081 c -0.099,0.56694 -0.25042,1.388 -0.33658,1.82456 -0.62668,3.17536 -0.90548,6.66677 -1.11264,13.9341 l -0.17849,6.26118 1.23192,-0.40557 1.23192,-0.40556 z m 50.78473,-0.89467 c -0.13139,-0.40019 -0.42604,-1.8587 -0.6548,-3.24115 -0.71583,-4.3261 -3.26589,-14.09256 -5.06307,-19.39106 -2.47311,-7.29126 -5.63803,-13.65039 -7.0635,-14.19235 -0.87228,-0.33165 -5.42472,-1.07701 -6.578012,-1.07701 -1.11972,0 -1.33944,0.41449 -0.4164,0.78551 0.32742,0.13161 0.46053,0.24683 0.2958,0.25606 -0.18842,0.0105 0.0324,1.06262 0.59531,2.83645 1.140792,3.59475 1.129242,4.19598 -0.0166,0.8657 -1.6332,-4.74663 -1.88356,-5.0083 -4.791803,-5.0083 -2.16502,0 -2.1735,0.003 -2.86817,0.91347 -0.38321,0.50241 -0.80651,1.18701 -0.94068,1.52135 -0.13416,0.33434 -0.24887,0.42929 -0.2549,0.21101 -0.006,-0.21828 0.21873,-0.90289 0.49946,-1.52135 0.28074,-0.61846 0.46533,-1.12448 0.41021,-1.12448 -0.55805,0 -4.68063,0.63686 -6.28157,0.97038 -1.93261,0.40262 -2.05738,0.47194 -2.32863,1.29385 -0.15764,0.47764 -0.44907,1.00327 -0.64764,1.16806 -0.47857,0.39718 -2.64354,4.89131 -3.63607,7.54792 -3.17071,8.48663 -5.676015,17.19866 -6.809675,23.68021 -0.26725,1.52797 -0.57671,3.01625 -0.68768,3.30729 -0.1703,0.44662 -0.0819,0.42011 0.56664,-0.17001 2.078845,-1.89148 9.000655,-4.26472 15.008105,-5.14572 4.59434,-0.67376 14.580525,-0.40595 18.700945,0.50152 6.06833,1.33648 11.37394,3.4558 12.45613,4.97559 0.681,0.95638 0.81159,0.96593 0.50663,0.0371 z m -55.69967,-9.7187 c 0.48167,-3.43129 0.5006,-3.90269 0.13128,-3.26997 -0.22425,0.38418 -0.768782,4.4878 -0.78145,5.88901 -0.01087,1.20232 0.275917,0.0471 0.65017,-2.61904 z m 7.93685,-11.84645 c 1.06208,-2.36681 2.41389,-4.40263 7.472745,-11.25394 1.0804,-1.46323 1.39709,-2.10158 0.88586,-1.78561 -0.13625,0.0842 -0.79632,0.95443 -1.46684,1.93384 -4.24722,6.20382 -7.506745,10.04308 -9.159205,10.78823 l -1.0325,0.4656 v 1.95596 c 0,1.07578 0.19907,2.74845 0.44237,3.71705 l 0.44237,1.76109 0.62844,-2.50046 c 0.34564,-1.37526 1.14968,-3.66205 1.78676,-5.08176 z m 51.34313,2.31671 0.17379,-2.11667 -1.54454,-0.81469 c -1.30418,-0.68792 -1.83117,-1.21119 -3.38638,-3.36251 -2.07529,-2.87074 -2.73503,-3.26505 -0.86953,-0.5197 1.78672,2.62943 2.96953,5.10921 4.0919,8.57876 l 0.99898,3.08811 0.181,-1.36832 c 0.0995,-0.75257 0.2592,-2.32082 0.35478,-3.48498 z m -1.08403,-3.90261 c -0.40016,-0.47294 -0.82318,-0.83155 -0.94004,-0.79692 -0.11685,0.0346 -0.15859,-0.0844 -0.0927,-0.26458 0.0658,-0.18016 -1.18135,-1.72776 -2.77155,-3.43911 -3.8709,-4.16582 -4.6658,-5.33945 -1.92461,-2.84157 1.19772,1.0914 2.60855,2.60945 3.13517,3.37343 0.94797,1.37524 1.73231,1.93368 1.1268,0.80227 -1.59504,-2.98037 -3.17386,-4.73854 -6.51759,-7.25796 -1.05503,-0.79494 -1.91823,-1.53862 -1.91823,-1.65262 0,-0.114 -0.32742,-0.37139 -0.72761,-0.57198 -0.97183,-0.48712 -1.36316,-0.61218 -0.8023,-0.25639 0.39554,0.25092 1.7859,2.02957 4.14191,5.29866 0.36707,0.50933 1.35375,1.69995 2.19262,2.64584 0.83888,0.94588 2.16266,2.49369 2.94173,3.43958 1.1622,1.41106 2.27124,2.35459 2.79436,2.37735 0.0493,0.002 -0.23775,-0.38305 -0.63792,-0.856 z m -51.64556,-0.17168 c 0.48046,-0.42185 1.82406,-1.9823 2.98577,-3.46766 1.161725,-1.48536 2.796825,-3.53226 3.633565,-4.54866 0.83675,-1.01639 1.52136,-1.99352 1.52136,-2.17138 0,-0.41053 1.22153,-1.52146 2.22386,-2.02252 0.53634,-0.26811 0.64105,-0.40918 0.34642,-0.46677 -1.45027,-0.28344 -9.095835,7.03994 -11.725505,11.23142 -0.26133,0.41655 0.2927,-0.0704 1.23118,-1.08207 2.86172,-3.08496 6.754455,-6.94029 6.157215,-6.09807 -0.30958,0.43656 -1.37814,1.73271 -2.37458,2.88034 -0.996455,1.14762 -2.320855,2.75496 -2.943125,3.57187 -0.62227,0.81691 -1.43604,1.81271 -1.80837,2.21289 -0.89564,0.96264 -0.35691,0.93443 0.75221,-0.0394 z m 51.94994,-1.24769 c -0.21597,-0.41989 -0.86681,-1.77547 -1.44631,-3.0124 -1.9132,-4.08363 -5.4962,-7.60372 -9.15594,-8.99515 -1.17006,-0.44485 -0.73695,0.21677 0.59352,0.90668 3.58725,1.86016 6.4076,4.8474 8.64837,9.16014 0.83821,1.61326 1.57555,2.88167 1.63853,2.81869 0.063,-0.063 -0.0622,-0.45807 -0.27817,-0.87796 z m -49.27343,-5.57012 c 0.851,-0.90324 1.472515,-1.76323 1.381125,-1.91109 -0.206195,-0.33363 1.96807,-2.07335 4.38788,-3.51093 2.70836,-1.60901 2.87557,-2.08985 0.26921,-0.77416 -2.18588,1.10343 -4.775415,3.23495 -6.938405,5.71119 l -1.15557,1.32292 1.04799,-0.9347 c 2.07969,-1.85488 2.340735,-1.94246 0.75765,-0.2542 -0.8873,0.94624 -1.81261,2.13663 -2.05626,2.6453 l -0.443,0.92485 0.60105,-0.78846 c 0.33058,-0.43365 1.29732,-1.52748 2.14833,-2.43072 z m 15.181865,-8.05129 c 2.92095,-0.47961 4.13262,-0.53727 8.93543,-0.42521 3.596893,0.0839 6.293725,0.28077 7.647525,0.5582 1.15021,0.2357 2.14718,0.37264 2.2155,0.30432 1.41235,-1.41234 -11.018115,-2.55629 -17.668235,-1.62597 -3.84739,0.53824 -4.60954,0.74826 -4.71575,1.29951 -0.10443,0.542 -0.45692,0.5529 3.58553,-0.11085 z"
       id="path31" /></g></svg>
