<?xml version="1.0" encoding="UTF-8" standalone="no"?>
<!-- Created with Inkscape (http://www.inkscape.org/) -->

<svg
   width="210mm"
   height="297mm"
   viewBox="0 0 210 297"
   version="1.1"
   id="svg1"
   xml:space="preserve"
   inkscape:export-filename="image.svg"
   inkscape:export-xdpi="96"
   inkscape:export-ydpi="96"
   sodipodi:docname="flamme.svg"
   xmlns:inkscape="http://www.inkscape.org/namespaces/inkscape"
   xmlns:sodipodi="http://sodipodi.sourceforge.net/DTD/sodipodi-0.dtd"
   xmlns="http://www.w3.org/2000/svg"
   xmlns:svg="http://www.w3.org/2000/svg"><sodipodi:namedview
     id="namedview1"
     pagecolor="#505050"
     bordercolor="#eeeeee"
     borderopacity="1"
     inkscape:showpageshadow="0"
     inkscape:pageopacity="0"
     inkscape:pagecheckerboard="0"
     inkscape:deskcolor="#505050"
     inkscape:document-units="mm" /><defs
     id="defs1" /><g
     inkscape:label="Calque 1"
     inkscape:groupmode="layer"
     id="layer1"
     style="display:inline"><g
       id="g5"
       transform="matrix(1.6468627,0,0,1.6487328,-127.1393,-70.119457)"
       style="fill:#cc0000;fill-opacity:1;stroke:none;stroke-width:0.606871"><path
         id="path6"
         style="fill:#cc0000;fill-opacity:1;stroke:none;stroke-width:0.606871"
         d="m 157.69521,42.529303 -1.63866,0.553454 -1.63918,0.553455 v 0.216008 h -0.13229 -0.13229 v 0.132291 l -0.26252,-0.162264 -2.58072,1.09399 -2.58072,1.09399 -3.04271,1.602487 -3.04271,1.602486 -0.85834,0.58291 -0.85835,0.58291 0.0853,0.08578 h -0.0884 v 0.132292 0.04393 h -0.0816 -0.34674 l -1.64435,1.116727 -1.64486,1.116728 0.14573,0.236161 h -0.13229 v 0.132292 l -0.27389,-0.169499 -1.11156,0.8785 -1.11156,0.878499 -1.46348,1.285193 -1.46347,1.285193 0.0594,0.207739 h -0.0594 -0.13229 v 0.132292 l -0.17364,-0.107487 -1.5074,1.523938 -1.50792,1.523421 0.10284,0.102836 h -0.0889 v 0.132292 0.08785 l -0.39688,-0.08785 0.0661,0.330729 0.0134,0.06615 h -0.0796 -0.13229 v 0.132291 0.07958 l -0.0662,-0.01344 -0.33073,-0.06615 0.0729,0.350366 0.01,0.04651 h -0.0827 -0.13229 v 0.132292 l -0.19068,-0.117822 -1.72135,2.175577 -1.72185,2.175578 -1.4578,2.248959 -1.45779,2.248958 -0.6904,1.373043 -0.69039,1.373559 -0.7953,2.002462 -0.79582,2.002462 -0.80874,2.709395 -0.80873,2.709912 -0.38706,1.984375 -0.38654,1.984375 0.11007,0.955497 -0.0419,-0.161747 -0.0103,0.79375 -0.004,0.322461 -0.0269,-0.05788 -0.24804,-0.529167 -0.0186,0.482141 -0.0186,0.482141 -0.38034,4.412651 -0.38034,4.41265 -0.27853,4.233325 -0.27854,4.23334 0.0775,0.60875 -0.0207,-0.0796 -0.0103,0.79375 -0.004,0.27441 -5.1e-4,-0.002 -0.22686,-0.52039 -0.14987,1.1157 -0.14934,1.11621 0.0501,0.54674 -0.0393,-0.14987 v 0.92605 0.31367 l -0.0155,-0.0491 -0.20981,-0.66146 -0.18138,0.88677 -0.18139,0.88728 0.13023,0.21033 h -5.2e-4 -0.13229 v 0.13229 0.13229 h -0.0129 -0.30902 l 0.17156,0.68316 0.046,0.18294 -0.16019,-0.1602 v 0.35243 0.13178 l -0.0176,-0.0109 -0.30334,-0.18759 0.16639,0.52503 0.0429,0.13591 -0.0873,-0.0879 -0.10955,0.28732 h -0.0884 -0.13229 v 0.13229 0.1323 h 0.11989 l -0.15141,0.39687 0.32918,-0.32608 0.22014,-0.21859 0.0233,0.0729 -0.40876,0.33951 -0.40876,0.339 0.16537,0.52038 -0.15348,-0.15348 v 0.35243 0.13178 l -0.20878,-0.12919 -0.14882,0.38705 -0.14832,0.38706 0.0946,0.0584 -0.13487,0.13488 0.16898,0.44132 0.0568,0.14779 -0.0977,-0.11989 -0.41858,-0.51315 0.14522,0.46303 0.0625,0.19843 h -0.0326 -0.13229 v 0.13229 0.1323 h -0.0238 -0.27182 l 0.17105,0.27698 0.0646,0.10439 -0.13901,-0.13953 -0.10955,0.28732 h -0.0884 -0.13229 v 0.13229 0.1323 h 0.11989 l -0.13384,0.35088 -0.0946,0.0946 -0.68523,0.68471 -0.0336,0.16226 -0.0341,0.16278 -0.061,0.57155 -0.0119,0.11058 -0.26923,0.3607 -0.1416,0.18966 0.0103,-0.0196 0.29507,-0.55139 h -0.13488 -0.13487 l -0.39274,0.76016 -0.39326,0.76016 0.0605,0.0672 h -0.0816 v 0.12248 l -0.20567,-0.11731 -0.74569,0.9896 -0.74621,0.98961 -1.46606,1.58181 -1.42523,1.53686 -0.19689,-0.12196 -0.38241,0.3173 -0.3824,0.31781 0.1266,0.20464 h -0.13229 v 0.13229 0.0553 l -0.1881,-0.0553 -1.61902,1.29243 -1.619025,1.29294 0.07855,0.12764 -0.119373,0.0847 -0.38964,0.2775 0.02015,-0.0325 0.163814,-0.26459 h -0.132292 -0.132291 l -0.163815,0.26459 -0.163297,0.26458 h 0.08165 l -0.05064,0.0362 v 0.14005 l -0.08113,-0.0811 -0.150896,-0.15089 -1.604036,1.23352 -1.60352,1.23403 v 0.13281 0.13229 l 0.03101,-0.0191 -0.75706,0.56482 0.08992,-0.10438 0.503846,-0.58602 -2.116667,1.73065 -2.116667,1.73064 v 0.28887 0.0202 l -0.396875,0.38395 v -0.0677 -0.3483 l -1.163236,1.16427 -1.163237,1.16427 -1.471745,1.70584 -1.471744,1.70532 0.132808,0.16381 -0.154512,0.17519 v 0.1757 0.0274 l -0.162781,-0.061 -0.166915,0.20877 h -0.06718 -0.132292 v 0.13229 0.11679 l -0.27957,0.34933 -0.541569,0.67645 -0.05426,-0.0336 0.03514,0.0568 -0.08578,0.10749 -0.613916,1.08314 -0.614433,1.08313 0.415996,-0.51366 0.342098,-0.4222 -0.555005,0.80977 -0.358118,0.52297 h -0.07183 v 0.0884 l 0.01447,-0.005 -0.01447,0.0207 v -0.016 l -0.132292,0.0439 0.03721,0.11111 -0.103353,0.15089 0.05168,0.13488 h -0.17018 -0.31781 l 0.31781,0.31781 0.121956,0.12195 -0.02429,-0.015 -0.309542,-0.19121 -0.04031,0.34624 -0.01034,0.0889 -0.346232,-0.27182 0.329179,0.4191 -0.01292,0.11007 -0.03566,0.2651 -0.01757,0.12919 -0.06046,-0.0977 -0.145728,-0.23564 -0.349849,0.63097 -0.349333,0.63096 -0.0098,0.2279 -0.0093,0.22789 0.420646,-0.51935 -0.427881,0.64337 -0.03204,0.0816 h -0.09302 -0.132291 v 0.13229 0.1323 h 0.121439 l -0.121439,0.31057 v -0.046 h -0.132292 -0.132292 v 0.13229 0.13229 h 0.132292 0.04651 l -0.17415,0.44545 -0.09302,-0.0925 -0.176217,-0.17621 v 0.35243 0.35295 l 0.160714,-0.16071 -0.189653,0.4842 -0.05943,-0.0589 -0.176216,-0.17621 v 0.35243 0.35295 l 0.08423,-0.0842 -0.102319,0.26045 h -0.114205 -0.132292 v 0.13229 0.13229 h 0.132292 0.01085 l -0.05374,0.13643 0.04289,0.12815 h -0.132292 -0.264583 v 0.26459 0.26458 h 0.264583 0.264584 v -0.13126 l 0.04393,0.13178 H 79.32842 79.072622 l -0.136426,0.59479 -0.0067,0.0289 -0.0067,-0.007 -0.176216,-0.17621 v 0.35243 0.35295 l 0.08165,-0.0816 -0.02894,0.12557 -0.05271,0.19379 v -0.0615 h -0.132292 -0.132292 v 0.13229 0.13229 h 0.132292 0.077 l -0.238745,0.87953 -0.05426,-0.13539 -0.139009,-0.34727 -0.02067,0.50747 -0.02119,0.50694 0.12454,-0.12454 -0.128674,0.47336 -0.08423,-0.0842 -0.176216,-0.17622 v 0.35243 0.35295 l 0.176216,-0.17621 0.0155,-0.0155 -0.135909,0.50075 -0.135392,0.75809 -0.0088,-0.009 -0.176217,-0.17622 v 0.35243 0.35295 l 0.112138,-0.11213 -0.145727,0.81752 -0.04186,0.23512 -0.0083,-0.0202 -0.139009,-0.34727 -0.02067,0.50747 -0.02119,0.50694 0.08992,-0.0899 -0.212907,1.19269 0.0026,0.7829 -0.10232,-0.25425 v 0.66146 0.66145 l 0.10542,-0.26148 0.0124,3.56878 0.01137,3.19825 -0.109554,-0.42013 -0.0098,0.79375 -0.0098,0.79375 0.131775,-0.32556 0.0041,1.11983 0.151928,0.85163 -0.02325,-0.0584 -0.02067,0.50746 -0.02119,0.50695 0.15968,-0.15968 0.04031,-0.0403 0.161747,0.90537 0.0021,0.0114 -0.09922,-0.0992 v 0.35244 0.35295 l 0.1757,-0.1757 0.21084,1.17977 -0.121956,-0.12196 v 0.35244 0.35295 l 0.176216,-0.17622 0.0155,-0.0155 0.0894,0.50022 0.109554,0.39688 h -0.12609 v 0.13229 0.13229 h 0.132292 0.06666 l 0.219108,0.79375 h -0.02119 -0.132292 v 0.13229 0.1323 h 0.132292 0.09405 l 0.219108,0.79375 h -0.04858 -0.132291 v 0.13229 0.13229 h 0.132291 0.12144 l 0.163814,0.59428 -0.152962,-0.15296 v 0.35243 0.35295 l 0.176217,-0.17622 0.06304,-0.063 0.115238,0.41754 -0.08992,-0.0899 v 0.35243 0.35295 l 0.176217,-0.17622 0.02739,-0.0274 0.141077,0.51212 0.05633,0.13229 h -0.0041 -0.132291 v 0.13229 0.13229 h 0.132291 0.116789 l 0.113171,0.26459 h -0.09767 v 0.13229 0.13229 h 0.132292 0.07803 l 0.225309,0.52917 h -0.03876 -0.132292 v 0.13229 0.13229 h 0.132292 0.132292 v -0.0455 l 0.132291,0.31006 h -0.13235 v 0.13229 0.1323 h 0.132291 0.112655 l 0.335897,0.78806 0.115238,0.27027 h -0.03462 -0.132292 v 0.13229 0.13229 h 0.132292 0.132292 v -0.0351 l 0.12764,0.29973 h -0.12764 v 0.13229 0.13229 h 0.132291 0.108521 l 0.113171,0.26613 -0.0894,-0.0894 v 0.35244 0.35295 l 0.176217,-0.17622 0.0708,-0.0708 0.180351,0.42323 h -0.03049 -0.132292 v 0.13229 0.1323 h 0.132292 0.132292 v -0.0253 l 0.123506,0.28991 H 81.92154 v 0.13229 0.13229 h 0.132291 0.10387 l 0.05168,0.12093 0.08268,0.14366 h -0.105937 v 0.13229 0.13229 h 0.132292 0.125573 l 0.151929,0.26458 h -0.01292 -0.132292 v 0.13229 0.1323 h 0.132292 0.132292 v -0.0568 l 0.33693,0.58601 h -0.07235 v 0.13229 0.1323 h 0.132292 0.09198 l 0.151928,0.26458 h -0.111621 v 0.13229 0.13229 h 0.132292 0.131258 l 0.151929,0.26459 h -0.0186 -0.132291 v 0.13229 0.13229 h 0.132291 0.132292 v -0.0672 l 0.267684,0.46664 -0.04393,-0.0274 -0.305408,-0.18914 0.188619,0.30541 0.189136,0.30541 h 0.116272 0.08216 l 0.151929,0.26458 H 84.30279 v 0.13229 0.1323 h 0.132291 0.132292 v -0.008 l 0.08061,0.14056 0.173116,0.25838 -0.02997,-0.0186 -0.305408,-0.18914 0.188619,0.30541 0.189136,0.30541 h 0.116272 0.111621 l 0.264583,0.39377 -0.03566,-0.0217 -0.305408,-0.18914 0.188619,0.30541 0.189136,0.30541 h 0.116272 0.114721 l 0.08888,0.13229 0.266133,0.39687 h -0.08837 v 0.13229 0.1323 h 0.132291 0.132292 v -0.002 l 0.356051,0.53071 h -0.09147 v 0.13229 0.1323 h 0.132292 0.132292 v -0.006 l 0.09302,0.13849 0.573609,0.7152 -0.219109,-0.13539 0.188619,0.30541 0.189136,0.3054 h 0.116272 0.105937 l 0.614433,0.76636 -0.0083,-0.006 -0.46302,-0.36328 0.363285,0.46302 0.363285,0.46302 h 0.09974 0.09095 l 0.86403,1.07797 -0.193786,-0.15193 0.363285,0.46302 0.362768,0.46302 h 0.100253 0.07338 l 0.290939,0.28577 v 0.11111 0.13229 h 0.132291 0.115239 l 1.984891,1.95182 1.103292,1.08469 -0.293005,-0.25839 0.641304,0.72761 0.641822,0.7276 h 0.08578 l 0.0863,5.2e-4 v -0.0548 l 0.661459,0.65061 0.658874,0.49506 0.233578,0.29766 0.362768,0.46302 h 0.100252 0.09974 v -0.0997 -0.063 l 0.518315,0.38964 -0.0708,-0.0439 0.188619,0.30541 0.189136,0.30541 h 0.116272 0.116788 v -0.11628 -0.045 l 0.196887,0.14779 0.312126,0.23461 -0.0615,-0.0382 0.188619,0.30541 0.189136,0.30541 h 0.116272 0.116789 v -0.11628 -0.0439 l 0.56534,0.42478 h -0.03617 v 0.13229 0.13229 h 0.132297 0.13229 v -0.093 l 0.52917,0.39739 v 0.0925 0.13229 h 0.13229 0.13229 v -0.0258 l 0.26148,0.19637 0.26769,0.15968 v 0.0667 0.1323 h 0.13229 0.13229 v -0.0413 l 0.52917,0.31522 v 0.12299 0.13229 h 0.13229 0.13229 v -0.0977 l 0.60823,0.36226 h -0.0791 v 0.13229 0.13229 h 0.13229 0.13229 v -0.13229 -0.0217 l 0.21859,0.13023 0.15296,0.24753 0.18914,0.30541 h 0.11627 0.11679 v -0.11628 -0.094 l 0.35347,0.21033 h -0.0889 v 0.13229 0.13229 h 0.13229 0.1323 v -0.13229 -0.0274 l 0.2682,0.15968 h -0.004 v 0.13229 0.13229 h 0.13229 0.13229 v -0.10903 l 0.26252,0.15606 0.10904,0.17673 0.18913,0.30541 h 0.11627 0.11679 v -0.11627 -0.0496 l 0.27802,0.16588 h -0.0134 v 0.13229 0.13229 h 0.13229 0.13229 v -0.11524 l 0.26458,0.15762 v 0.0899 0.1323 h 0.13229 0.1323 v -0.0822 l 0.26458,0.12971 v 0.0847 0.13229 h 0.13229 0.13229 v -0.0873 l 1.32292,0.6475 v 0.10129 0.13229 h 0.13229 0.13229 v -0.10387 l 0.01,0.005 0.25477,0.12454 v 0.10697 0.13229 h 0.13229 0.13229 V 216.251 l 0.26458,0.12971 v 0.11213 0.1323 h 0.13229 0.1323 v -0.11473 l 0.26458,0.1292 v 0.11782 0.13229 h 0.13229 0.13229 v -0.12041 l 0.26459,0.12971 v 0.12299 0.13229 h 0.13229 0.13229 v -0.12557 l 0.18603,0.0909 0.8723,0.33693 v 0.0946 0.13229 h 0.13229 0.1323 v -0.12454 l 0.40824,0.15761 -0.0553,0.0553 -0.17674,0.17621 h 0.35295 0.35295 l -0.0791,-0.0791 0.25528,0.0987 v 0.11265 0.1323 h 0.13229 0.13229 v -0.1323 -0.0103 l 1.05834,0.40876 v 0.13074 0.13229 h 0.13229 0.13229 v -0.13229 -0.0284 l 0.52917,0.20412 v 0.0889 0.1323 h 0.13229 0.13229 v -0.11886 l 0.13229,0.0512 0.39688,0.12712 v 0.0729 0.13229 h 0.13229 0.13229 v -0.11989 l 0.52917,0.1695 v 0.0827 0.13229 h 0.13229 0.13229 v -0.13022 l 0.52917,0.17001 v 0.0925 0.1323 h 0.13229 0.13229 v -0.1323 -0.008 l 0.52917,0.1695 v 0.10284 0.13229 h 0.13229 0.13229 v -0.13229 -0.0181 l 0.52917,0.17002 v 0.11265 0.13229 h 0.13229 0.13229 v -0.13229 -0.0279 l 0.39687,0.12712 0.39688,0.10697 v 0.0584 0.1323 h 0.13229 0.13229 v -0.11938 l 0.64958,0.1757 -0.032,0.032 -0.17674,0.17622 h 0.35295 0.35295 l -0.10232,-0.1018 0.27854,0.0749 0.26458,0.0713 v 0.0879 0.13229 h 0.13229 0.1323 v -0.13229 -0.0165 l 0.79375,0.21446 v 0.0667 0.1323 h 0.13229 0.13229 V 221.26 l 0.39687,0.10697 0.39688,0.0785 v 0.0744 0.13229 h 0.13229 0.13229 v -0.13229 -0.0222 l 1.16014,0.22944 -0.0134,0.0134 -0.17673,0.17621 h 0.35295 0.35295 l -0.11007,-0.10955 0.69918,0.13797 -0.0599,0.0599 -0.17674,0.17622 h 0.35295 0.35295 l -0.17673,-0.17622 -0.003,-0.003 0.7524,0.14882 0.63201,0.10594 -0.0202,0.008 -0.34726,0.13901 0.50694,0.0207 0.50747,0.0207 -0.0956,-0.0956 0.13953,0.0238 1.33842,0.0362 0.57723,0.0155 -0.38913,0.10128 -0.46819,0.12196 0.79375,0.0103 0.79375,0.009 -0.32556,-0.13177 -0.26561,-0.10749 0.62321,0.0165 0.10026,-0.0744 v 0.0744 h 0.13229 0.13229 v -0.13229 -0.13229 h -0.008 l 0.1571,-0.11679 0.51366,-0.38137 -0.29145,-0.47853 -0.21084,-0.34623 h 0.10438 v -0.13229 -0.13229 h -0.13229 -0.13229 v 0.10335 l -0.28629,-0.10335 h 0.0217 v -0.1323 -0.13229 h -0.1323 -0.13229 v 0.13229 0.0445 l -0.52916,-0.19121 v -0.11782 -0.13229 h -0.1323 -0.13229 v 0.13229 0.0222 l -0.52916,-0.1912 v -0.0956 -0.13229 h -0.1323 -0.13229 v 0.13229 l -0.0258,-0.009 -0.50332,-0.1819 v -0.0734 -0.13229 h -0.1323 -0.13229 v 0.11007 l -0.52916,-0.1912 v -0.0512 -0.13229 h -0.1323 -0.13229 v 0.0884 l -0.26458,-0.0956 v -0.12505 -0.13229 h -0.13229 -0.13229 v 0.13229 0.0294 l -0.13126,-0.0475 -0.23565,-0.1142 h 0.10232 v -0.1323 -0.13229 h -0.13229 -0.13229 v 0.13229 0.0532 l -0.52917,-0.25631 v -0.0615 -0.13229 h -0.13229 -0.13229 v 0.0651 l -0.13023,-0.063 -0.13435,-0.0651 v -0.0692 -0.13229 h -0.1323 -0.13229 v 0.0729 l -0.92294,-0.44752 -0.23099,-0.15451 h 0.0956 v -0.13229 -0.13229 h -0.13229 -0.13229 v 0.13229 0.0191 l -0.26459,-0.17674 v -0.10697 -0.13229 h -0.13229 -0.13229 v 0.062 l -0.52917,-0.35398 v -0.1049 -0.13229 h -0.13229 -0.13229 v 0.0605 l -0.52917,-0.35399 v -0.10335 -0.13229 h -0.13229 -0.13229 v 0.0589 l -0.52917,-0.35398 v -0.10181 -0.13229 h -0.13229 -0.13229 v 0.0568 l -0.87592,-0.58601 h 0.0822 v -0.11628 -0.11678 l -0.30541,-0.18862 -0.30541,-0.18914 0.18862,0.30541 0.0827,0.13332 -0.10129,-0.0677 -1.67587,-1.64073 v -0.0625 -0.0915 l -0.59531,-0.50385 -0.57154,-0.48421 -0.15606,-0.15296 v -0.0904 -0.0915 l -0.59532,-0.50385 -0.59531,-0.50436 0.12196,0.14418 -0.68782,-0.67335 -0.72915,-1.19062 h 0.10439 v -0.13229 -0.13229 h -0.1323 -0.13229 v 0.003 l -0.32608,-0.53227 h 0.0615 v -0.13229 -0.13229 h -0.13229 -0.091 l -0.16227,-0.26459 h 0.12093 v -0.13229 -0.13229 h -0.1323 -0.13229 v 0.0295 l -0.3421,-0.55863 h 0.0775 v -0.13229 -0.13229 h -0.13229 -0.10697 l -0.16227,-0.26458 h 0.005 0.1323 v -0.1323 -0.13229 h -0.1323 -0.13229 v 0.0558 l -0.19637,-0.32039 h 0.0641 0.13229 v -0.13229 -0.13229 h -0.13229 -0.13229 v 0.13229 0.0207 l -0.01,-0.016 -0.15503,-0.40153 h 0.0326 0.13229 v -0.13229 -0.13229 h -0.13229 -0.13229 v 0.005 l -0.10387,-0.26975 h 0.10387 v -0.1323 -0.13229 h -0.1323 -0.0739 l -0.33125,-0.85938 -0.077,-0.19895 h 0.0853 v -0.13229 -0.13229 h -0.13229 -0.0548 l -0.20412,-0.52917 h 0.12661 v -0.13229 -0.13229 h -0.1323 -0.0966 l -0.20412,-0.52917 h 0.0362 0.13229 v -0.13229 -0.13229 h -0.13229 -0.13229 v 0.015 l -0.007,-0.0186 -0.1173,-0.52555 h 0.12454 v -0.13229 -0.13229 h -0.13229 -0.0512 l -0.23616,-1.05834 h 0.0227 0.1323 v -0.13229 -0.13229 h -0.1323 -0.0816 l -0.2341,-1.0511 0.0785,-0.0785 0.1602,-0.16019 -0.13901,-0.34727 -0.13901,-0.34727 -0.0207,0.50747 -0.006,0.13332 -0.0837,-0.3762 -0.0222,-2.59002 0.0202,-0.25425 0.0992,-1.25677 -0.0992,-1.25677 -0.0486,-0.62167 -0.0124,-1.42886 0.17312,-0.68522 v 0.28835 0.66146 l 0.13332,-0.33073 0.13333,-0.33073 -0.13333,-0.33073 -0.0754,-0.18707 0.16484,-0.65164 v 0.19947 l 0.17622,-0.17621 0.17673,-0.17674 -0.17673,-0.17621 -0.0744,-0.0744 0.20463,-0.8077 h 0.0904 0.13229 v -0.13229 -0.13229 h -0.13229 -0.0238 l 0.2005,-0.79375 h 0.0879 0.13229 v -0.1323 -0.13229 h -0.13229 -0.0207 l 0.20051,-0.79375 h 0.0847 0.1323 v -0.13229 -0.13229 h -0.1323 -0.0176 l 0.20051,-0.79375 h 0.0817 0.13229 v -0.13229 -0.13229 h -0.11214 l 0.13694,-0.26459 h 0.10749 0.13229 v -0.13229 -0.13229 h -0.10283 l 0.13694,-0.26458 h 0.0982 0.1323 v -0.1323 -0.13229 h -0.0935 l 0.13694,-0.26458 h 0.0889 0.13229 v -0.13229 -0.13229 h -0.0842 l 0.35553,-0.68678 0.25787,-0.49816 v 0.1266 h 0.13229 0.13229 v -0.13229 -0.13229 h -0.13229 -0.061 l 0.27388,-0.52917 h 0.0517 0.13229 v -0.13229 -0.13229 h -0.047 l 0.13694,-0.26458 h 0.006 0.13229 l 0.56534,-0.79375 0.56534,-0.79375 h -0.13229 -0.0811 l 0.44183,-0.56328 v 0.0341 h 0.0997 0.10025 l 0.36277,-0.46302 0.36328,-0.46302 -0.46302,0.36328 -0.12505,0.0982 0.46612,-0.59376 h 0.0574 0.13229 l 0.30954,-0.37311 0.31006,-0.37362 -0.34365,-0.19792 -0.17828,-0.10284 0.14779,0.0491 0.21911,0.0723 0.36432,-0.39687 h 0.0796 0.13229 l 0.47904,-0.52917 0.47905,-0.52916 h -0.1323 -0.0661 l 1.17667,-1.2821 0.0372,-0.0408 h 10e-4 0.13229 l 0.62115,-0.66146 0.62167,-0.66146 h -0.13229 -0.0295 l 1.26091,-1.37407 0.66042,-0.79995 v 0.0574 h 0.0997 0.10025 l 0.36277,-0.46302 0.36328,-0.46303 -0.46302,0.36329 -0.1297,0.1018 0.13177,-0.15968 0.94051,-1.13895 -0.0661,0.17209 h 0.0915 0.092 l 0.32918,-0.39688 0.32918,-0.39687 h -0.26821 -0.0103 l 0.10439,-0.1323 0.0997,-0.13229 h 0.11111 0.13229 l 0.16329,-0.26458 0.16382,-0.26458 h -0.13229 -0.0398 l 0.40514,-0.53796 v 0.009 h 0.0997 0.10025 l 0.36277,-0.46302 0.36328,-0.46302 -0.46302,0.36328 -0.11265,0.0884 0.43976,-0.58394 h 0.10491 0.13229 l 0.16329,-0.26459 0.16382,-0.26458 h -0.13229 -0.0341 l 0.13591,-0.18035 v -0.17208 h 0.26355 v -0.0729 -0.0723 l -0.2465,-0.15245 0.22945,0.14108 0.28163,-0.55759 v 0.008 h 0.13229 0.1323 v -0.1323 -0.13229 h -0.1323 -0.003 l 0.1354,-0.26768 v 0.003 h 0.13229 0.13229 v -0.13229 -0.13229 h -0.13229 l 0.13332,-0.26459 h 0.13126 0.13229 v -0.13229 -0.13229 h -0.13022 l 0.13384,-0.26458 h 0.12867 0.1323 v -0.1323 -0.13229 h -0.12764 l 0.13384,-0.26458 h 0.12609 0.13229 v -0.13229 -0.13229 h -0.12506 l 0.14418,-0.28474 0.0124,0.0202 h 0.11627 0.11679 v -0.11627 -0.11679 l -0.3054,-0.18913 -0.30386,-0.18759 -5.2e-4,-10e-4 0.26613,0.16433 0.26614,0.16485 0.15348,-0.51212 h 0.0563 0.1323 v -0.13229 -0.13229 h -0.10956 l 0.0837,-0.27854 0.0258,-0.0863 v 0.18862 l 0.17621,-0.17621 0.17674,-0.17674 -0.17674,-0.17621 -0.0574,-0.0574 0.13849,-0.46303 0.0729,0.19069 0.14779,-0.14831 0.14831,-0.14831 -0.32866,-0.32608 -0.11214,-0.1111 0.25529,0.15761 0.0884,-0.28887 v 0.13642 l 0.17622,-0.17621 0.17673,-0.17674 -0.17673,-0.17621 -0.0429,-0.0429 0.13126,-0.42943 v 0.20774 l 0.17621,-0.17621 0.17674,-0.17674 -0.17674,-0.17621 -0.0599,-0.0599 0.17105,-0.55759 h 0.10955 0.13229 v -0.13229 -0.13229 h -0.13229 -0.0289 l 0.12144,-0.39688 0.0667,-0.33538 0.14935,-0.14934 0.17673,-0.17673 -0.17673,-0.17622 -0.0419,-0.0419 0.11421,-0.57567 0.0393,-0.19947 0.15296,-0.15297 0.17674,-0.17673 -0.17674,-0.17622 -0.0439,-0.0439 0.13952,-0.7059 0.0367,-0.45165 -0.002,0.18706 0.13177,-0.32556 0.13229,-0.32556 -0.12195,-0.46819 -0.0486,-0.18552 0.045,-0.54725 0.0584,-0.71727 0.0858,0.58498 h 0.10232 0.10232 l -0.0186,-1.25677 -0.0186,-1.25677 -0.13539,0.34468 0.0641,-3.78427 0.0594,-3.50779 0.0749,2.58175 0.0879,3.04271 0.0842,-3.15381 0.0842,-3.15381 -0.25373,-0.15658 -0.0295,-0.0181 h 0.20257 l 0.14418,-2.4474 0.0295,-0.50074 0.063,-0.15555 0.13229,-0.32556 -0.12195,-0.46819 -0.0139,-0.0548 0.0553,-0.94258 0.0393,-0.24236 v 0.11007 0.35295 l 0.17622,-0.17622 0.17673,-0.17673 -0.17673,-0.17622 -0.14263,-0.14263 0.0129,-0.078 0.0749,-0.46302 0.42633,0.0651 -0.15968,-0.29817 0.0656,-0.0661 0.12403,-0.12402 -0.28112,-0.48266 -0.19999,-0.34416 0.1633,0.25735 0.25218,0.39687 0.60358,-0.60875 0.57671,-0.58136 h 0.39015 0.22996 l 0.4005,0.25735 0.46302,0.29766 0.41341,0.79943 0.41289,0.79944 0.17829,-0.1478 0.17725,0.3421 -0.11886,0.093 0.14521,0.23461 0.14521,0.23461 0.31471,-0.0207 0.0661,-0.004 -0.12971,0.20878 0.0713,0.0806 h -0.0253 -0.0827 l 0.28319,0.52917 0.28318,0.52917 h 0.2527 0.14935 l 0.0486,0.22686 0.008,0.0377 h -0.0806 -0.13229 v 0.13229 0.13229 h 0.13229 0.1323 v -0.0212 l 0.0124,0.0584 0.34571,0.49196 h -0.0935 v 0.13229 0.13229 h 0.13229 0.13229 v -0.0212 l 0.44184,0.6289 -0.2589,-0.1602 0.18862,0.30541 0.18913,0.30541 h 0.11627 0.0811 l 0.0594,0.0842 0.20309,0.28939 -0.30851,-0.19069 0.19121,0.31006 0.19172,0.30954 0.15813,-0.0977 0.34675,0.49403 -0.0532,-0.0331 -0.30541,-0.18914 0.18862,0.30541 0.18914,0.30541 h 0.11627 0.11679 v -0.03 l 0.26716,0.38086 -0.26975,-0.0398 0.12196,0.1974 0.12196,0.19741 h 0.28783 v 0.12764 l 0.45734,0.57774 -0.2744,-0.17002 0.18862,0.30541 0.18913,0.30541 h 0.11627 0.11679 v -0.016 l 0.46302,0.58498 0.16485,0.20825 -0.015,0.0124 -0.21653,-0.19638 -0.21652,-0.19637 0.19275,0.33538 0.19327,0.33487 0.19585,-0.12092 0.29663,0.37465 v 0.002 h 0.002 l 0.6568,0.82992 -0.063,-0.0558 -0.72761,-0.64182 0.64131,0.7276 0.64182,0.72761 h 0.0858 0.0315 l 0.17725,0.22014 -0.14832,0.092 0.31006,0.37311 0.30955,0.3731 h 0.077 l 0.076,5.2e-4 -0.016,-0.0832 0.38602,0.47904 0.20619,-0.0579 v 0.0584 0.1323 h 0.13229 0.0558 l -0.0558,0.1943 0.12661,0.15865 h -0.25063 l 0.29042,0.34985 0.29042,0.34985 0.15296,-0.0946 0.28422,0.35605 0.55501,0.69556 -0.0873,-0.0734 -0.56793,-0.47697 0.64131,0.72554 0.64182,0.72553 h 0.0294 0.03 l 0.007,-0.13694 0.185,0.19534 0.29921,0.31522 v 0.0517 l 0.0491,0.004 0.73278,0.87901 -0.16795,-0.14211 -0.59532,-0.50436 0.50385,0.59531 0.50436,0.59532 h 0.0909 0.0915 v -0.0315 l 0.5116,0.6134 0.50281,0.60255 -0.0222,-0.0186 -0.59532,-0.50437 0.50385,0.59532 0.50436,0.59531 h 0.0909 0.0749 l 0.51522,0.61753 h -0.23616 l 0.43873,0.48524 0.43925,0.48473 h 0.12351 0.0956 l 0.17518,0.23978 0.46922,0.64234 h -0.15399 l 0.43873,0.48524 0.43925,0.48472 h 0.12351 0.0956 l 0.17518,0.23978 0.46922,0.64234 h -0.12867 l 0.13642,0.22066 0.13643,0.22014 h 0.10077 0.10128 l 0.002,-0.004 0.46095,0.60513 -0.24908,-0.15399 0.18862,0.30541 0.18914,0.3054 h 0.11627 0.10335 l 0.47129,0.61754 h -0.17001 l 0.13642,0.22065 0.13643,0.22015 h 0.10077 0.10128 l 0.0274,-0.0445 0.38189,0.55346 -0.0786,0.12712 0.13023,0.21136 0.13022,0.21084 h 0.0605 0.0605 l 0.007,-0.0997 0.24856,0.35967 -0.0961,0.13126 0.12454,0.20154 0.12454,0.20102 h 0.13229 0.0827 l 0.26717,0.38757 -0.0253,-0.016 -0.30541,-0.18862 0.18862,0.30541 0.18913,0.30541 h 0.11627 0.11679 v -0.001 l 0.36587,0.5302 h -0.13229 l 0.1633,0.26458 0.16381,0.26458 h 0.11627 0.11679 v 0.0109 l 0.24908,0.37621 -0.0253,-0.0155 -0.30541,-0.18862 0.18862,0.30541 0.18914,0.3054 h 0.11627 0.10594 l 0.1757,0.26562 0.078,0.11782 -0.0191,-0.0119 -0.30541,-0.18862 0.18862,0.30541 0.18914,0.3054 h 0.11627 0.1018 l 0.23358,0.35295 h -0.19534 l 0.13643,0.22066 0.13642,0.22014 h 0.10077 0.10129 l 0.0294,-0.0481 0.11989,0.31265 h -0.11834 v 0.13229 0.13229 h 0.13229 0.0879 l 0.10026,0.26148 0.12712,-0.0791 -0.0506,0.0822 -0.1633,0.26459 h 0.13229 0.13229 l 0.1633,-0.26459 0.06,-0.0966 -0.0238,0.29765 -0.0325,0.41652 h -0.11266 l 0.13643,0.22065 0.13643,0.22015 h 0.10076 0.10129 l 0.0305,-0.0496 0.16123,0.31419 h -0.0284 -0.13229 v 0.13229 0.13229 h 0.13229 0.13229 v -0.062 l 0.16743,0.3266 h -0.0351 -0.13229 v 0.13229 0.13229 h 0.13229 0.13229 v -0.0755 l 0.17467,0.34003 h -0.0424 -0.13229 v 0.13229 0.1323 h 0.13229 0.1323 v -0.0889 l 0.31729,0.61805 h -0.0527 v 0.13229 0.1323 h 0.13229 0.0558 l 0.13591,0.26458 h -0.0594 v 0.13229 0.13229 h 0.13229 0.0631 l 0.13539,0.26459 h -0.0661 v 0.13229 0.13229 h 0.13229 0.0698 l 0.0212,0.0413 0.11472,0.22324 h -0.0734 v 0.13229 0.1323 h 0.13229 0.0765 l 0.13591,0.26458 h -0.0801 v 0.13229 0.13229 h 0.13229 0.0837 l 0.13539,0.26459 h -0.0868 v 0.13229 0.13229 h 0.13229 0.0904 l 0.13591,0.26458 h -0.0941 v 0.13229 0.1323 h 0.13229 0.0971 l 0.13591,0.26458 h -0.10077 v 0.13229 0.13229 h 0.13229 0.10439 l 0.41806,0.81546 -0.0925,-0.092 -0.32918,-0.32659 0.18087,0.47439 0.18087,0.47439 0.14779,-0.1478 0.0486,-0.0486 0.19172,0.5395 -0.0129,-0.0129 -0.17622,-0.17622 v 0.35244 0.35295 l 0.17622,-0.17622 0.0987,-0.0987 0.1602,0.45113 h -0.0382 -0.13229 v 0.13229 0.1323 h 0.13229 0.13229 l 0.0982,0.27491 -0.0982,-0.0982 v 0.35243 0.35295 l 0.17622,-0.17621 0.0553,-0.0553 0.14521,0.40773 h -0.11214 v 0.13229 0.13229 h 0.13229 0.0739 l 0.1881,0.52917 h -0.1297 v 0.13229 0.13229 h 0.13229 0.0915 l 0.1881,0.52917 h -0.015 -0.13229 v 0.13229 0.13229 h 0.13229 0.10956 l 0.0847,0.23875 -0.062,-0.062 v 0.35243 0.35295 l 0.17622,-0.17622 0.0382,-0.0382 0.13953,0.39223 -0.0894,-0.0894 v 0.35243 0.35295 l 0.17621,-0.17622 0.0512,-0.0512 0.003,0.007 0.2098,0.92604 h -0.0429 -0.13229 v 0.13229 0.1323 h 0.13229 0.10284 l 0.17931,0.79375 h -0.0176 -0.13229 v 0.13229 0.13229 h 0.13229 0.0775 l 0.0403,0.17725 0.15038,0.66456 -0.13591,-0.13591 v 0.35243 0.35295 l 0.17621,-0.17621 0.0398,-0.0398 0.29353,1.29656 -0.0641,-0.1602 -0.13901,-0.34727 -0.0207,0.50747 -0.0212,0.50694 0.15968,-0.15968 0.11886,-0.11885 0.11058,1.58543 -0.0827,-0.20464 v 0.66146 0.66146 l 0.13333,-0.33073 0.004,-0.009 0.0543,0.78135 0.19999,2.87786 -0.10645,-0.40928 -0.0103,0.79375 -0.01,0.79375 0.10336,-0.25476 -0.20929,2.23914 -0.0202,0.21394 -0.13849,-0.34623 -0.0207,0.50746 -0.0212,0.50695 0.13023,-0.13023 -0.1602,1.71359 -0.0537,-0.13384 -0.13901,-0.34727 -0.0207,0.50747 -0.0212,0.50694 0.15968,-0.15968 0.0403,-0.0403 -0.25787,1.02422 -0.0305,-0.0305 -0.17621,-0.17621 v 0.35243 0.35295 l 0.10852,-0.10852 -0.20516,0.8139 h -0.0357 -0.13229 v 0.13229 0.1323 h 0.10129 l -0.16227,0.64492 -0.0274,-0.0274 -0.17622,-0.17622 v 0.35244 0.35295 l 0.10335,-0.10336 -0.11265,0.447 -0.0791,-0.0791 -0.17621,-0.17622 v 0.35244 0.35295 l 0.17621,-0.17622 0.0134,-0.0134 -0.14159,0.56224 -0.009,0.0186 -0.12712,-0.12661 -0.17622,-0.17622 v 0.35244 0.35295 l 0.17622,-0.17622 0.0284,-0.0284 -0.20464,0.40979 v -0.0289 h -0.13229 -0.13229 v 0.13229 0.1323 h 0.13229 0.0145 l -0.14676,0.29455 v -0.03 h -0.13229 -0.13229 v 0.13229 0.13229 h 0.13229 0.015 l -0.14727,0.29508 v -0.0305 h -0.1323 -0.13229 v 0.13229 0.13229 h 0.13229 0.0155 l -0.11731,0.23513 -0.0786,0.15813 -0.003,-0.003 -0.14779,-0.14831 -0.18087,0.47438 -0.18087,0.47439 0.22635,-0.22427 -0.19482,0.39067 v -0.0341 h -0.1323 -0.13229 v 0.13229 0.13229 h 0.13229 0.0171 l -0.14935,0.29972 v -0.0351 h -0.13229 -0.13229 v 0.13229 0.1323 h 0.13229 0.0176 l -0.13642,0.27388 -0.0134,0.0196 v -0.0289 h -0.13229 -0.13229 v 0.13229 0.13229 h 0.10335 l -0.36174,0.52917 h -0.10697 -0.13229 l -0.16381,0.26458 -0.1633,0.26459 h 0.13229 0.0729 l -0.13901,0.20308 -0.0419,0.0615 h -0.12558 -0.13229 v 0.13229 0.13229 h 0.077 l -0.34365,0.5023 -0.32866,0.25786 -0.46302,0.36329 v 0.0997 0.0997 h 0.0997 0.0925 l -1.05265,1.0821 -0.26407,0.20723 -0.46302,0.36328 v 0.0997 0.077 l -0.20929,0.21549 -0.38602,0.30282 -0.46302,0.36329 v 0.0997 0.0997 h 0.007 l -0.13901,0.14314 -0.92604,0.77876 v -0.12815 h -0.13229 -0.13229 v 0.13229 0.13229 h 0.10232 l -0.3669,0.30851 v -0.0439 h -0.1323 -0.13229 v 0.13229 0.1323 h 0.002 l -0.39894,0.33538 -0.24288,0.15916 0.14211,-0.22996 h -0.13229 -0.13229 l -0.16382,0.26458 -0.15761,0.25528 -0.50385,0.3297 v -0.0558 h -0.13229 -0.13229 v 0.13229 0.0966 l -0.30748,0.20102 -0.22169,0.14521 v -0.046 h -0.13229 -0.13229 v 0.13229 0.0863 l -0.26458,0.17311 v -0.12712 h -0.1323 -0.13229 v 0.13229 0.13229 h 0.0548 l -0.58394,0.38189 v -0.1173 h -0.1323 -0.13229 v 0.13229 0.13229 h 0.0367 l -0.30127,0.13953 v -0.007 -0.13229 h -0.13229 -0.13229 v 0.13229 0.12971 l -0.26459,0.12247 v -0.11989 h -0.13229 -0.13229 v 0.13229 0.11008 l -0.26458,0.12195 v -0.0997 h -0.1323 -0.13229 v 0.13229 0.0899 l -0.13797,0.0641 -0.73536,0.34003 -0.009,-0.009 -0.17622,-0.17622 -0.17622,0.17622 -0.17673,0.17622 h 0.17673 l -0.35295,0.16329 v -0.031 -0.13229 h -0.13229 -0.13229 v 0.13229 0.13229 h 0.046 l -0.10387,0.0481 -0.2067,0.0713 v -0.11937 h -0.1323 -0.13229 v 0.13229 0.078 l -0.52916,0.1819 v -0.12764 h -0.1323 -0.13229 v 0.13229 0.0863 l -0.21342,0.0734 -0.31574,0.10853 v -0.004 -0.13229 h -0.1323 -0.13229 v 0.13229 0.0951 l -0.52916,0.1819 v -0.0124 -0.13229 h -0.1323 -0.13229 v 0.13229 0.10387 l -0.10387,0.0357 -0.16071,0.10542 v -0.11266 h -0.13229 -0.13229 v 0.13229 0.1323 h 0.032 l -0.21601,0.14159 -0.22996,0.15089 0.0171,-0.0279 0.16382,-0.26458 h -0.1323 -0.13229 l -0.16381,0.26458 -0.1633,0.26458 h 0.0491 l -0.0181,0.0119 v 0.33796 0.33797 l 0.31781,0.31729 0.31729,0.31781 1.07177,-0.003 1.07073,-0.004 0.4067,-0.0899 -0.0977,0.0971 h 0.35295 0.35295 l -0.17673,-0.17622 -0.0134,-0.0134 0.94154,-0.20878 -0.13435,0.13385 h 0.35295 0.35295 l -0.17674,-0.17622 -0.0372,-0.0372 1.002,-0.22169 -0.17105,0.17053 h 0.35295 0.35295 l -0.17673,-0.17621 -0.0605,-0.0605 0.72192,-0.15968 -0.13229,0.13178 h 0.35295 0.35295 l -0.17674,-0.17622 -0.0357,-0.0357 0.22841,-0.0506 0.68936,-0.15296 v 0.0186 0.1323 h 0.13229 0.13229 v -0.1323 -0.077 l 0.83561,-0.185 -0.13022,0.1297 h 0.35295 0.35295 l -0.17674,-0.17621 -0.0346,-0.0346 0.91674,-0.20257 v 0.0165 0.13229 h 0.13229 0.13229 v -0.13229 -0.0754 l 0.79375,-0.1757 v 0.11886 h 0.13229 0.1323 v -0.1323 -0.0455 l 0.34158,-0.0755 0.45217,-0.14676 v 0.003 0.13229 h 0.13229 0.13229 v -0.13229 -0.0889 l 0.52917,-0.17157 v 0.12816 h 0.13229 0.13229 v -0.13229 -0.0817 l 0.57774,-0.18707 -0.13694,0.13643 h 0.35295 0.35295 l -0.17673,-0.17622 -0.0662,-0.0661 0.12661,-0.0408 0.33021,-0.10697 -0.12609,0.12557 h 0.35295 0.35295 l -0.17673,-0.17621 -0.0605,-0.0605 1.20717,-0.39119 v 0.0987 h 0.13229 0.13229 v -0.1323 -0.0522 l 0.39636,-0.12816 0.13281,-0.0548 v 0.10283 h 0.13229 0.13229 v -0.13229 -0.0801 l 1.05833,-0.43666 v 0.11989 h 0.13229 0.1323 v -0.1323 -0.0971 l 0.4749,-0.19585 0.58343,-0.24081 v 0.005 0.13229 h 0.13229 0.13229 v -0.13229 -0.11369 l 0.26459,-0.10904 v 0.0904 h 0.13229 0.13229 v -0.1323 -0.0672 l 0.81855,-0.33797 0.23978,-0.12092 v 0.12919 h 0.13229 0.1323 v -0.13229 -0.13023 l 0.26458,-0.13332 v 0.13126 h 0.13229 0.13229 v -0.1323 -0.13229 l 0.26459,-0.13332 v 0.001 0.13229 h 0.13229 0.13229 v -0.13229 -0.13229 h -0.004 l 0.26871,-0.13539 v 0.003 0.13229 h 0.13229 0.1323 v -0.13229 -0.13229 h -0.008 l 0.27285,-0.13746 v 0.005 0.1323 h 0.13229 0.13229 v -0.1323 -0.13229 h -0.0124 l 0.27699,-0.13952 v 0.007 0.13229 h 0.13229 0.13229 v -0.13229 -0.13229 h -0.016 l 0.2806,-0.14108 v 0.009 0.13229 h 0.13229 0.1323 v -0.13229 -0.13229 h -0.0196 l 0.28422,-0.14315 v 0.0109 0.1323 h 0.13229 0.13229 v -0.1323 -0.13229 h -0.0238 l 0.9493,-0.478 0.13281,-0.0853 v 0.0341 h 0.13229 0.13229 v -0.1323 -0.0713 l 0.26458,-0.17001 v 0.10903 h 0.13229 0.1323 v -0.13229 -0.13229 h -0.0217 l 0.55087,-0.35347 v 0.0889 h 0.13229 0.1323 v -0.1323 -0.12609 l 0.38033,-0.24391 -0.14676,0.23771 h 0.1323 0.13229 l 0.16329,-0.26458 0.15762,-0.25477 0.23926,-0.15347 v 0.0114 0.1323 h 0.13229 0.13229 v -0.1323 -0.13229 h -0.076 l 0.11937,-0.0765 0.48576,-0.31161 v 0.12351 h 0.13229 0.13229 v -0.13229 -0.13229 h -0.0444 l 0.57361,-0.36742 v 0.10283 h 0.13229 0.13229 v -0.13229 -0.13229 h -0.0124 l 0.54157,-0.34727 v 0.0827 h 0.13229 0.13229 v -0.1323 -0.11988 l 0.52917,-0.33952 v 0.0625 h 0.13229 0.13229 v -0.13229 -0.10749 l 0.84491,-0.6873 -0.0822,0.13333 h 0.13229 0.13229 l 0.1633,-0.26458 0.16381,-0.26459 h -0.0227 l 0.85835,-0.69866 -0.10439,0.1695 h 0.1323 0.13229 l 0.16329,-0.26459 0.16382,-0.26458 h -0.045 l 0.5426,-0.44132 v 0.077 0.0997 h 0.0997 0.10025 l 0.36277,-0.46302 0.36328,-0.46303 -0.12867,0.10129 1.18649,-0.96532 2.11667,-2.22312 1.97249,-2.07222 h 0.11369 0.13229 l 0.16329,-0.26458 0.16382,-0.26459 h -0.10645 l 0.67747,-0.79375 h 0.10904 l 0.47904,-0.52916 0.47904,-0.52917 h -0.13229 -0.032 l 0.80977,-0.94878 0.0708,-0.10904 h 0.0966 0.13229 l 0.1633,-0.26458 0.16382,-0.26458 h -0.1323 -0.0801 l 0.17259,-0.2651 h 0.10956 0.13229 l 0.1633,-0.26459 0.16381,-0.26458 h -0.13229 -0.093 l 0.17209,-0.26458 h 0.12299 0.13229 l 0.16329,-0.26459 0.16382,-0.26458 h -0.13229 -0.10646 l 0.26717,-0.41134 -0.0785,0.14676 h 0.13229 0.1323 l 0.28318,-0.52917 0.28319,-0.52917 h -0.13229 -0.0279 l 0.40618,-0.62528 v 0.0961 h 0.13229 0.13229 v -0.1323 -0.13229 h -0.13229 -0.0227 l 0.17157,-0.26458 h 0.0847 0.13229 l 0.1633,-0.26458 0.16381,-0.26459 h -0.13229 -0.0682 l 0.17208,-0.26458 h 0.0982 0.13229 l 0.16329,-0.26458 0.16382,-0.26459 h -0.13229 -0.0816 l 0.0863,-0.13281 0.0961,-0.19792 v 0.0661 h 0.13229 0.13229 v -0.13229 -0.13229 h -0.13229 -0.0362 l 0.16847,-0.34727 v 0.0827 h 0.13229 0.13229 v -0.13229 -0.13229 h -0.13229 -0.0439 l 0.25683,-0.52917 h 0.0517 0.1323 v -0.13229 -0.13229 h -0.0558 l 0.12867,-0.26458 h 0.0594 0.13229 v -0.1323 -0.13229 h -0.0636 l 0.12816,-0.26458 h 0.0491 0.13229 l 0.28319,-0.52917 0.28318,-0.52916 h -0.13229 -0.1018 l 0.21549,-0.44442 v 0.0481 0.13229 h 0.13229 0.13229 v -0.13229 -0.13229 h -0.13229 -0.0915 l 0.22376,-0.46147 v 0.28473 l 0.17622,-0.17621 0.17673,-0.17674 -0.17673,-0.17621 -0.0388,-0.0388 0.15245,-0.31419 h 0.10697 0.13229 v -0.1323 -0.13229 h -0.1111 l 0.12815,-0.26458 h 0.11524 0.13229 v -0.13229 -0.13229 h -0.13229 -0.0109 l 0.14314,-0.37001 v 0.19379 l 0.17622,-0.17622 0.17673,-0.17673 -0.17673,-0.17622 -0.0336,-0.0336 0.12351,-0.31936 h 0.13074 0.13229 v -0.13229 -0.13229 h -0.13229 -0.0289 l 0.16123,-0.41703 v 0.24081 l 0.17622,-0.17621 0.17673,-0.17674 -0.17673,-0.17621 -0.0465,-0.0465 0.0181,-0.0475 0.11679,-0.30231 v 0.0434 h 0.13229 0.1323 v -0.1323 -0.13229 h -0.1323 -0.047 l 0.17932,-0.46405 v 0.28784 l 0.17621,-0.17622 0.17674,-0.17673 -0.17674,-0.17622 -0.0599,-0.06 0.14831,-0.38343 v 0.1788 l 0.17622,-0.17622 0.17673,-0.17673 -0.17673,-0.17622 -0.0295,-0.0295 0.12041,-0.31212 0.0284,-0.21859 0.14521,-0.14521 0.17673,-0.17674 -0.17673,-0.17621 -0.0708,-0.0708 0.0713,-0.54674 h 0.0723 0.28009 v -0.26458 -0.26458 h -0.11679 -0.0661 v -5.2e-4 l 0.15192,-0.39688 0.0465,-0.15089 -0.0155,0.37207 0.15968,-0.15968 0.1602,-0.1602 -0.13901,-0.34726 -0.0419,-0.10491 0.12557,-0.40772 v 0.12144 l 0.17622,-0.17622 0.17673,-0.17673 -0.17673,-0.17622 -0.0388,-0.0388 0.12713,-0.41186 v 0.18604 l 0.17621,-0.17622 0.17674,-0.17673 -0.17674,-0.17622 -0.0537,-0.0537 0.007,-0.0238 0.13488,-0.43769 v 0.25063 l 0.17622,-0.17622 0.17673,-0.17673 -0.17673,-0.17622 -0.0693,-0.0692 0.15761,-0.51159 v 0.0517 l 0.17622,-0.17621 0.17673,-0.17674 -0.17673,-0.17621 -0.0222,-0.0222 0.13591,-0.44132 0.0656,-0.41858 h 0.0413 0.13229 v -0.13229 -0.13229 H 203.233 l 0.15606,-0.99374 0.15245,-0.15245 0.17673,-0.17673 -0.17673,-0.17622 -0.0636,-0.0636 0.18914,-1.20458 0.005,-0.0294 v 0.28318 l 0.13333,-0.33072 0.13332,-0.33073 -0.13332,-0.33073 -0.016,-0.0398 0.14107,-0.89969 0.12403,-0.12402 0.16019,-0.1602 -0.13901,-0.34727 -0.0331,-0.0827 0.16588,-1.05885 0.0124,-0.4687 v 0.20463 l 0.12093,-0.46302 0.12092,-0.46302 -0.12092,-0.46302 -0.0811,-0.31161 0.0879,-3.32693 0.13952,-5.29166 -0.20567,-1.78801 0.0522,-0.1297 0.13333,-0.33073 -0.13333,-0.33073 -0.13332,-0.33073 v 0.41703 l -0.15452,-1.34307 -0.0124,-0.10852 0.0341,-0.0848 0.13229,-0.32557 -0.12196,-0.46818 -0.12195,-0.46819 -0.008,0.60616 -0.20929,-1.81797 0.0667,-0.0667 0.17673,-0.17673 -0.17673,-0.17622 -0.13023,-0.13022 -0.0713,-0.61909 -0.0992,-0.44906 0.0362,-0.0362 0.17673,-0.17673 -0.17673,-0.17622 -0.1571,-0.15709 -0.16692,-0.75345 0.0594,-0.0594 0.17674,-0.17674 -0.17674,-0.17621 -0.17621,-0.17622 v 0.0594 l -0.12248,-0.55449 0.0176,-0.0176 0.1602,-0.1602 -0.13901,-0.34726 -0.13901,-0.34727 -0.0145,0.35398 -0.17311,-0.78134 0.0408,-0.0408 0.1602,-0.16019 -0.13901,-0.34727 -0.13901,-0.34727 -0.0186,0.46148 -0.19172,-0.8661 0.0801,-0.0801 0.17674,-0.17673 -0.17674,-0.17622 -0.17621,-0.17622 v 0.17519 l -0.14366,-0.64906 0.0553,-0.0553 0.17673,-0.17674 -0.17673,-0.17621 -0.17622,-0.17622 v 0.0377 l -0.10593,-0.47904 h 0.10593 v -0.13229 -0.13229 h -0.13229 -0.0325 l -0.14625,-0.66198 -0.0651,-0.19637 0.0233,-0.0232 0.17674,-0.17673 -0.17674,-0.17622 -0.17621,-0.17622 v 0.0915 l -0.17674,-0.53278 h 0.0444 0.1323 v -0.1323 -0.13229 h -0.1323 -0.13229 l -0.1757,-0.52916 h 0.0434 0.13229 v -0.1323 -0.13229 h -0.13229 -0.13074 l -0.11059,-0.33176 0.0207,-0.0207 0.17674,-0.17673 -0.17674,-0.17622 -0.17621,-0.17622 v 0.0801 l -0.17312,-0.52141 h 0.0408 0.1323 v -0.1323 -0.13229 h -0.1323 -0.12867 v -5.1e-4 l -0.17518,-0.52865 h 0.0393 0.13229 v -0.1323 -0.13229 h -0.13229 -0.12712 l -0.1757,-0.52916 h 0.0382 0.13229 v -0.1323 -0.13229 h -0.13229 -0.12609 l -0.11111,-0.33589 0.0165,-0.0165 0.17673,-0.17673 -0.17673,-0.17622 -0.17622,-0.17622 v 0.0651 l -0.16795,-0.50643 h 0.0357 0.13229 v -0.1323 -0.13229 h -0.13229 -0.12351 l -0.1757,-0.52916 h 0.0346 0.13229 v -0.1323 -0.13229 h -0.13229 -0.13229 v 0.005 l -0.12506,-0.29404 0.0847,-0.20825 -0.14883,0.0568 -0.15038,-0.35347 h 0.0749 v -0.13229 -0.13229 h -0.13229 -0.0548 l -0.21239,-0.49971 0.0455,-0.31109 -0.12454,0.12454 -0.046,-0.10801 -0.11783,-0.27698 0.10698,-0.27957 -0.17881,0.11059 -0.19843,-0.46664 0.15348,-0.54209 -0.2372,0.34468 -0.20257,-0.47697 h 0.008 0.13229 v -0.13229 -0.13229 h -0.13229 -0.12092 l -0.0563,-0.13281 -0.0858,-0.17725 0.0553,-0.0553 0.12402,-0.12402 -0.28112,-0.48266 -0.2806,-0.48317 -0.008,0.17725 -0.007,0.14831 -0.29507,-0.60823 0.28784,0.17776 -0.16072,-0.41857 -0.16071,-0.41858 -0.17932,0.21962 -0.22686,-0.46819 h 0.0718 0.13229 v -0.13229 -0.13229 h -0.13229 -0.13229 v 0.13229 0.007 l -0.19585,-0.40359 h 0.0636 0.13229 v -0.1323 -0.13229 h -0.13229 -0.13229 v 0.12196 l -0.14625,-0.30127 0.13126,-0.3452 -0.27233,0.0537 -0.15658,-0.32298 h 0.047 0.13229 v -0.13229 -0.13229 h -0.13229 -0.13229 v 0.0879 l -0.10542,-0.21808 0.0124,-0.3731 -0.14883,0.092 -0.18551,-0.38241 h 0.0305 0.1323 v -0.13229 -0.13229 h -0.1323 -0.13229 v 0.0537 l -0.19895,-0.41031 0.19327,0.11937 -0.1664,-0.43305 -0.16588,-0.43253 -0.13229,0.18604 -0.005,-0.01 -0.18035,-0.31161 0.0765,-0.34933 -0.28061,-0.17312 -0.15244,-0.094 -0.15917,-0.27595 0.0941,-0.24443 -0.21136,0.0413 -0.18087,-0.31213 h 0.0139 0.1323 v -0.13229 -0.13229 h -0.1323 -0.13229 v 0.0594 l -0.002,-0.003 -0.14211,-0.24598 -0.004,-0.31212 -0.23306,-0.21239 -0.13953,-0.12764 -0.12661,-0.21859 0.11214,-0.29094 -0.20619,0.12764 -0.37413,-0.64751 -0.24237,0.20102 0.38138,-0.44751 h -0.36484 l -0.15555,-0.26407 h 0.0568 0.11679 v -0.11627 -0.11679 l -0.30541,-0.18862 -0.185,-0.11472 -0.0739,-0.12506 -0.0873,-0.14831 0.0305,-0.0491 0.17363,-0.28164 -0.2775,0.17157 -0.015,0.009 -0.27802,-0.47077 0.004,0.002 0.30231,0.18707 -0.18862,-0.30541 -0.18862,-0.30592 h -0.23358 v -0.0992 -0.0997 l -0.1881,-0.15607 0.32039,0.19224 -0.3731,-0.45992 -0.37311,-0.45941 -0.3886,0.1478 0.0765,-0.12351 0.16381,-0.26458 h -0.13229 -0.005 l 0.0827,-0.0832 -0.53588,-0.75241 -0.53537,-0.75241 h -0.19844 l -0.19947,-0.26406 h 0.0693 0.0997 v -0.0997 -0.0997 l -0.46302,-0.36329 -0.32143,-0.25218 -0.16071,-0.21291 0.007,-0.0114 0.13849,-0.22376 -0.45992,-0.36121 -0.33383,-0.26149 -0.29352,-0.3886 0.10077,0.0605 0.33072,0.19844 -0.36276,-0.44752 -0.36329,-0.44804 h -0.11575 -0.0703 l -0.0997,-0.13177 -0.26717,-0.26459 -0.078,-0.0775 0.0227,-0.0367 0.10387,-0.16795 -1.5012,-1.59628 -1.50172,-1.59629 0.64492,0.74518 0.64492,0.74465 h -0.0475 l -0.75292,-0.90227 -0.75396,-0.9033 -0.39688,-0.17053 -0.39584,-0.17054 -0.001,-5.1e-4 v -5.2e-4 l 0.52916,0.19637 0.52917,0.19585 -3.53467,-3.60081 -3.53415,-3.600813 -0.27337,0.104903 -0.14521,-0.111104 -0.99994,-1.049549 -1.079,-1.132747 -0.3762,-0.05529 -0.24392,-0.03566 v -0.10852 l -0.0506,-0.03152 h 0.0506 v -0.132291 -0.132292 h -0.13229 -0.0672 l -0.29352,-0.353467 -0.3607,-0.434599 -0.20464,0.116789 v -0.122473 h -0.0806 l 0.076,-0.08372 -0.28164,-0.339514 -0.28163,-0.339514 -0.27337,0.09767 -0.0408,-0.04031 -0.17621,-0.176217 10e-4,-0.0015 -0.43253,-0.478524 -0.43305,-0.478007 -0.19379,0.119889 v -0.13016 h -0.13229 -0.0475 l 0.0475,-0.148312 -2.20245,-1.976623 -2.20245,-1.976624 -0.69401,-0.529167 -0.58963,-0.449068 v -0.07958 -0.132292 h -0.13229 -0.0873 l -0.51831,-0.596346 -0.63304,-0.728121 -0.21652,0.133325 v -0.131775 h -0.13229 -0.0124 l 0.077,-0.132808 -0.19688,-0.194304 v -0.06976 -0.132291 h -0.1323 -0.0723 l -0.13436,-0.132809 -0.53589,-0.529167 0.19172,0.33383 -0.15141,-0.09405 -0.11834,-0.07338 0.0506,-0.132292 0.1328,-0.345715 -0.45992,-0.373104 -0.4594,-0.373621 0.17725,0.312126 -0.11679,-0.07235 -0.092,-0.05684 v -0.0062 -0.176734 l -0.61547,-0.862996 -0.61495,-0.862997 -0.22427,0.13901 v -0.132292 h -0.1323 l 0.12971,-0.209806 -0.46147,-0.502812 -0.46199,-0.503328 0.231,0.357084 -0.29714,-0.233061 -0.22996,-0.180351 0.0749,-0.120922 0.17001,-0.274919 -0.39739,-0.290422 -0.216,-0.158129 h 0.003 v -0.132292 -0.132292 h -0.1323 -0.10542 l -0.0532,-0.132808 -0.10594,-0.264584 -0.13229,0.04444 v -0.125574 -0.21394 l -0.0791,-0.101286 h 0.0791 V 80.7616 80.629308 h -0.13229 -0.13229 v 0.02687 l -0.13643,-0.174667 -0.27699,-0.3545 0.21291,0.108004 0.3328,0.168465 -0.52917,-0.427881 -0.17311,-0.140043 h 0.0408 V 79.703261 79.57097 h -0.13229 -0.13229 v 0.08371 l -0.1323,-0.10697 0.0661,-0.120923 0.0661,-0.120923 v -0.280086 -0.280086 l -0.30955,0.191203 -0.0687,0.04237 0.0253,-0.02532 0.17673,-0.176733 -0.17673,-0.176217 -0.046,-0.04599 0.11783,-0.307475 h -0.24805 V 78.115761 77.98347 h -0.13229 l 0.13901,-0.22531 -0.30644,-0.672827 -0.30644,-0.672827 -0.19844,0.122473 -0.10439,0.0646 0.03,-0.02997 0.0935,-0.09353 -0.14986,-0.344682 h 0.009 0.13229 v -0.132291 -0.132292 h -0.13229 -0.12403 l -0.12609,-0.290422 -0.01,-0.02274 0.0393,-0.03927 0.17673,-0.176734 -0.17673,-0.176216 -0.17622,-0.176217 v 0.253214 l -0.12712,-0.293005 -0.016,-0.237712 -0.0698,-1.02681 -0.29559,-0.182935 -0.12919,-0.0801 0.004,-0.0036 0.1602,-0.160197 -0.13901,-0.347265 -0.12454,-0.311609 0.0279,-0.300757 -0.061,-0.661458 -0.0605,-0.661459 -0.19379,0.426331 0.008,-0.0186 -0.12196,-0.468188 -0.11265,-0.433048 0.0217,-0.564824 -0.0506,-1.190625 -0.0501,-1.190625 -0.27336,0.396875 -0.13901,0.202055 0.0801,-0.527616 0.11058,-0.722437 -0.10748,-0.865063 -0.0744,-0.602548 0.062,-1.279508 0.17312,-0.173116 -0.1571,-0.15658 0.0507,-1.034562 0.29145,-2.116667 0.29146,-2.116666 0.92087,-2.645834 0.92036,-2.645833 0.003,-0.335897 0.14831,-0.148311 0.17673,-0.176733 -0.17673,-0.176217 -0.0889,-0.08888 h 0.23771 0.29249 l -0.16382,-0.163297 -0.10077,-0.100769 h 0.0439 0.13229 V 51.922011 51.78972 h -0.0382 l 0.18552,-0.185519 0.38705,-0.38654 -0.13694,-0.221691 h 0.13178 v -0.132292 -0.132292 h -0.1323 -0.13229 v 0.04961 l -0.031,-0.05013 h 0.26096 0.26097 l 1.00821,-1.653645 1.00872,-1.653646 -0.0424,-0.131775 h 0.048 0.1323 V 47.159511 47.02722 h -0.1323 -0.13229 v -5.17e-4 h 0.2527 0.25218 l 0.93379,-1.222665 0.9338,-1.223181 -0.12299,-0.199471 h 0.13177 v -0.132291 -0.132292 h -0.13229 -0.13229 v 0.04961 l -0.031,-0.05013 h 0.28009 0.28009 v -0.433565 -0.434082 l -0.46302,-0.3514 -0.46303,-0.3514 -0.80821,-0.0083 z m -3.32796,1.5875 h 0.0501 v 0.03101 z m -16.88321,9.209774 0.0822,0.132291 -0.1323,-0.08165 h 0.0501 z m -5.55625,4.540808 0.0134,0.04702 -0.0636,-0.03927 h 0.0501 z m -3.175,3.094385 0.13229,0.132291 -0.1974,-0.04393 h 0.0651 z m -1.05833,1.121378 0.0134,0.0646 -0.0636,-0.03927 h 0.0501 z m 24.16028,4.030762 -0.001,0.624768 -0.003,1.434538 -0.10439,0.152445 z m 0.50281,4.742863 -0.005,0.379822 -0.009,0.722953 -0.032,0.07028 0.0413,-1.058334 z m 0.50023,2.042252 -0.007,0.167949 -0.0108,0.260966 -0.0207,-0.01292 z m 0.69246,2.833419 0.11627,0.255282 0.29869,0.65629 -0.0212,0.01344 -0.19689,-0.46147 -0.19689,-0.461988 z m 1.13172,2.464966 v 0.05013 h -0.031 z m 0.26458,0.696598 v 0.178801 l -0.0899,0.05529 z m 0.78962,1.172022 0.0486,0.02429 0.25838,0.605131 0.30076,0.702799 h -5.2e-4 l -0.30334,-0.666109 z m 1.65312,2.794661 0.1695,0.216008 0.10077,0.128674 -0.32556,-0.255282 z m 0.73226,0.606165 0.13229,0.204638 -0.16795,-0.131774 h 0.0357 z m 0.26458,0.815971 v 0.05064 h 0.0506 l -0.1323,0.08165 z m 2.11667,2.149739 0.0847,0.149345 -0.14418,-0.131775 h 0.0594 z m 0.32556,0.696082 0.046,0.07441 0.0755,0.121956 -0.15916,-0.09819 z m 0.46819,0.31936 0.0816,0.14211 -0.13178,-0.08165 h 0.0501 z m 0.52917,0.795817 v 0.0584 h 0.0501 l -0.13177,0.08165 z m -46.0835,0.548804 0.0501,0.435632 -0.12196,-0.259932 0.0269,-0.06563 z m 53.49183,6.124174 h 0.0506 l -0.0636,0.03927 z m 1.00252,1.058333 h 0.15865 l -0.23513,0.08423 z m 1.11415,0.732772 v 0.06098 h 0.016 l -0.14832,0.08475 z m 2.51354,2.044836 0.79375,0.653191 0.39894,0.328145 -0.2005,-0.153479 -0.80822,-0.619084 z m 0.59531,0.675411 0.33073,0.336931 0.4284,0.437184 -0.0568,0.0217 -0.64854,-0.735353 z m 1.12448,0.691945 0.076,0.076 -0.076,-0.0579 z m 0.26458,0.2651 0.0884,0.0879 -0.0884,0.0879 v -0.0217 z m -0.26458,0.18966 0.12402,0.1266 -0.12402,0.12454 z m 1.34152,1.15496 0.86713,0.99219 h -5.2e-4 z m 3.75171,3.47214 0.46302,0.36277 v 5.2e-4 z m -66.52204,2.9037 0.0553,0.43718 -0.1204,-0.27698 0.0196,-0.0486 z m 69.76318,0.96635 0.72761,0.64131 0.7276,0.6413 v 5.2e-4 l -0.7276,-0.64131 z m 1.78388,1.83038 0.35346,0.55552 0.0372,0.0589 -0.0295,-0.0367 -0.40824,-0.50178 z m -72.08966,0.52813 0.0501,0.55191 -0.10645,-0.3359 0.0331,-0.12712 z m 72.81933,0.61754 0.13229,0.20774 0.28267,0.39532 -0.41496,-0.35398 v -0.23926 z m -73.28959,0.80925 0.0315,0.0512 h -0.0315 z m -0.29197,1.22525 0.0486,0.19275 -0.14935,-0.092 0.0398,-0.0398 z m 75.16854,0.20774 0.13281,0.18603 0.21394,0.01 0.20257,0.009 h -0.10594 -0.31522 z m 0.81029,0.60254 0.28112,0.48266 0.2806,0.48318 -0.28112,-0.48266 z m 0.59789,1.53273 -0.10955,0.17725 -0.10749,0.0408 z m -77.35807,0.0258 0.0718,0.22737 -0.185,-0.1142 0.0398,-0.0398 z m 77.80249,0.16123 h 0.0165 l 0.10128,0.26458 h -0.11782 v -0.13229 z m 0.0775,0 h 0.0548 0.13229 v 0.13229 0.0227 z m -78.39418,0.26458 h 0.13229 0.1323 v 0.13229 0.13229 h -0.0935 l -0.0212,-0.25528 -0.14986,0.14935 v -0.0264 z m 78.58125,0.38137 0.0568,0.14728 h -0.0568 z m -78.38953,0.13384 0.0729,0.045 v 0.43202 0.4315 l -0.0822,-0.10077 h 0.0765 l -0.0548,-0.65681 z m 78.9249,0.25063 0.045,0.0279 h -0.0341 z m 0.0444,0.11576 0.31988,0.67179 -0.0501,0.031 -0.15709,-0.40928 z m 0.62942,1.32033 0.21187,0.44339 h -0.0413 l -0.16174,-0.42065 z m 0.90744,1.20355 0.13436,0.24649 -0.13436,0.0832 v -0.31264 z m -0.79478,0.2682 v 0.0517 l -0.13126,0.10181 z m 1.10277,0.29817 0.21084,0.38706 -0.29042,-0.17932 z m 0.61392,1.1281 0.15916,0.29352 -0.15503,0.03 z m -84.26566,0.15658 v 0.10128 0.0217 l -0.0429,-0.0429 z m 0.35243,0.11317 -0.10025,0.262 -0.12351,-0.12351 0.10387,-0.0641 z m 84.33697,0.50953 0.0398,0.0734 0.10801,0.20619 -0.20619,-0.12713 z m -84.95398,0.14417 0.13229,0.14677 -0.14831,-0.0847 h 0.016 z m 85.49452,0.88832 0.076,0.1447 -0.15554,0.2191 z m 0.23048,0.4408 0.29714,0.56896 0.28422,0.54415 -0.0253,0.0155 -0.27801,-0.51935 -0.27802,-0.51883 z m -87.11407,0.0222 -0.46302,0.36329 v -5.2e-4 z m 86.93475,0.59532 0.15865,0.60564 -5.2e-4,5.2e-4 z m 1.11363,1.17098 0.11834,0.22635 -0.12661,0.0248 z m -89.75215,0.11938 h 0.0217 l -0.82269,0.88521 0.32194,-0.35605 z m 90.11853,0.72088 -0.12609,0.45372 -0.077,0.27544 -0.0537,-0.0538 z m 0.21239,0.29249 0.17002,0.44338 0.0672,0.17467 -0.14005,-0.24029 -0.16433,-0.28112 z m -91.23784,0.045 0.18087,0.29249 0.19637,0.31832 -0.0403,-0.0248 -0.14676,-0.25528 z m -0.0687,0.0145 -0.6351,0.68316 -0.0889,-0.0548 -0.0517,-0.032 0.38912,-0.29868 z m 91.12519,0.20205 -5.2e-4,0.0258 -0.008,0.37466 -0.13952,-0.13953 -0.0196,-0.0196 0.10439,-0.14986 z m -91.10917,0.0527 0.21652,0.19637 0.0455,0.0408 -0.11886,-0.0734 -0.19843,-0.12248 z m -0.28474,0.21446 -0.0284,0.0455 -0.16898,0.27285 -0.12402,-0.0765 0.185,-0.13953 z m 91.73911,0.81442 -0.12868,0.1571 0.0574,-0.11266 z m -92.95815,0.23875 0.0393,0.0636 -0.0434,-0.0129 h 0.004 z m -0.49145,0.24701 v 5.2e-4 l -0.71572,0.56275 z m 93.2279,0.0708 0.30541,0.41134 0.30489,0.41083 -5.1e-4,5.2e-4 -0.30541,-0.41135 -0.30438,-0.41031 z m 0.96222,0.51676 5.2e-4,0.001 -0.13333,0.21601 -0.1695,0.27389 0.15607,0.40721 0.15606,0.40721 -0.52917,0.56792 -0.52968,0.56844 v -0.001 l 0.52865,-0.56741 0.52916,-0.56844 -0.15606,-0.40669 -0.15606,-0.40721 0.15141,-0.24547 z m 0.28939,0.54467 0.35346,0.66456 0.21394,0.40256 -0.0734,0.10697 -0.37362,-0.8878 z m -96.95377,0.79117 v 5.1e-4 l -0.492997,0.35089 -0.03721,-0.0238 0.2651,-0.16382 z m 34.24907,0.1204 -1.2113,0.0966 -1.23145,0.0982 v -5.1e-4 l 1.22112,-0.0972 z m 0.30489,0.25683 0.17105,0.14418 0.2961,0.25012 -0.15864,-0.11266 -0.29611,-0.27027 z m -34.748268,0.12713 0.254248,0.1571 0.20412,0.1266 -0.0186,-0.002 -0.0579,-0.004 -0.35915,-0.22738 -0.05064,-0.032 z m 0.422198,0.0904 0.0754,0.19586 h -5.2e-4 z m 97.47157,0.0165 0.0806,0.15244 -0.15037,0.093 z m -98.196075,0.0915 0.03772,0.061 -0.501778,0.26872 -0.217558,0.11679 0.315226,-0.20671 z m 38.216275,0.22014 -0.18035,0.32608 0.16898,-0.31678 z m 0.70021,0.0879 0.21808,0.0723 -0.21808,-0.0718 z m 59.00209,0.0129 0.23667,0.14624 0.2372,0.14676 0.0543,-0.14159 v 0.0419 0.13384 l -0.26458,-0.16382 -0.26355,-0.16278 z m -61.10222,0.0315 h 0.25632 0.25631 v 5.2e-4 h -0.25631 -0.25632 z m 6.06785,0 h 10e-4 v 0.66146 0.66094 h -10e-4 v -0.66146 z m -3.30729,0.17415 h 0.001 l 0.16382,0.90485 0.16278,0.90279 v 0.002 l -0.16382,-0.90486 z m -5.93556,0.006 0.17002,0.16899 -0.17725,-0.10956 -0.0207,-0.0537 z m 2.62517,0.0667 0.40204,0.26768 -0.0403,-0.0108 z m -1.54565,0.0181 h 0.28629 l -0.43356,0.1633 -0.0258,0.01 z m 1.03612,0 h 0.40772 l 0.15348,0.15348 -0.1788,-0.0486 z m 62.75741,0.0915 -0.1726,0.17312 h -0.21136 -0.0661 l 0.25012,-0.0961 z m -100.114307,0.17312 h 0.0072 l -1.904277,1.42161 -0.241329,0.17984 0.189136,-0.17518 0.974617,-0.71314 z m 33.919377,0.0139 0.28939,0.6351 0.008,0.0165 -0.29559,-0.53382 z m 1.04903,0.11782 0.007,0.0114 -0.007,0.1664 -0.006,0.12299 0.002,-0.0848 z m 3.25717,0.0651 0.16898,0.16847 0.40204,0.0589 -0.39481,0.0579 -0.17415,-0.28216 z m -2.39986,0.0336 0.0253,0.0253 -0.14831,0.14832 -0.14779,0.14779 -0.0139,-0.0367 z m -36.054127,0.24082 -0.280086,0.20928 -0.911572,0.6811 -0.196888,0.10335 0.845427,-0.60513 z m 35.190097,0.0186 0.10336,0.26975 -0.10491,-0.19585 z m 65.3495,0.16691 v 0.35709 l 0.14108,0.047 -0.21239,0.0816 z m -0.51986,0.005 0.22169,0.34985 0.22221,0.34985 -0.0801,0.97307 -0.078,0.95291 -0.007,0.0196 0.0822,-0.97255 0.0822,-0.97307 -0.2222,-0.34985 -0.22066,-0.34881 z m -70.12285,0.13178 h 2.22725 2.22674 l 0.0848,0.25425 -0.0971,-0.25373 h -2.22106 -2.22053 z m 16.9323,5.2e-4 h 10e-4 v 0.39687 0.39636 h -10e-4 v -0.39688 z m -7.14272,0.14676 v 0.10232 0.24908 l -0.17673,0.10903 0.0863,-0.22427 z m -0.69091,0.077 0.2744,0.53175 -0.0574,0.0351 -0.15142,-0.39533 z m 0.95653,0.24029 0.0899,0.0749 -0.23667,0.0904 -0.0977,0.0377 z m -5.14336,0.0651 h 0.0491 v 0.0884 z m -0.23409,0.0868 0.555,0.0842 -0.14676,0.03 -0.33796,0.0687 z m 6.43578,0.0894 v 0.62632 0.62477 l -0.001,0.001 v -0.59738 -0.5979 l -0.14573,0.0899 z m -0.66353,0.0863 0.262,0.21807 -0.092,0.0568 z m -0.36431,0.002 h 0.13229 0.0641 l -0.29094,0.22841 -0.0909,0.0713 0.0217,-0.0351 z m 0.262,0 h 0.003 l -0.16382,0.26458 -0.16329,0.26458 h -0.0889 l 0.17519,-0.22376 z m 7.18612,0 h 5.2e-4 l 0.69091,0.72708 z m 3.63182,0 h 0.001 v 1.32291 1.3224 h -0.001 v -1.32291 z m -16.17886,0.39687 0.016,0.26458 0.0165,0.26459 -0.37517,1.19062 -0.37466,1.19063 v -0.002 l 0.37466,-1.18908 0.37413,-1.19062 -0.016,-0.26459 -0.016,-0.26355 z m 66.17581,0 0.42064,1.05833 -0.42013,-1.05523 z m -103.177167,0.0837 v 0.0956 l -0.595313,0.49661 -0.364835,0.30437 0.553971,-0.51728 z m 41.787627,0.25476 0.006,0.0119 -0.0119,-0.005 z m 0.12093,0.0579 h 0.18241 0.27337 l -0.0904,0.14676 -0.14986,-0.0605 z m 30.32166,0.52968 h 0.001 v 1.45521 1.45469 h -0.001 v -1.45521 z m -74.357736,0.53537 -0.386023,0.34623 -0.687296,0.61599 0.18035,-0.19896 0.501262,-0.55345 z m 0.355017,0.0408 0.42323,0.13384 -0.42323,-0.13333 -0.74259,0.63769 z m 33.787089,0.21704 h 0.26458 0.26458 v 5.1e-4 h -0.26458 -0.26458 z m 35.9823,5.1e-4 h 0.001 v 1.32292 1.3224 h -0.001 v -1.32292 z m 27.51666,0 h 0.001 v 1.05834 1.05781 h -0.001 v -1.05833 z m -99.019793,1.04128 0.09147,0.006 0.157613,0.0109 h -0.132291 -0.132292 z m -0.377238,0.014 0.01809,0.0186 -0.28112,0.27182 z m 80.347031,0.26768 h 10e-4 v 0.39687 0.39636 h -10e-4 v -0.39687 z m -40.11331,0.13229 0.0269,0.31471 -0.0269,-0.27802 z m -40.218218,0.14314 -0.0956,0.11524 -0.334347,0.40308 h -0.173633 z m 48.967038,0.38654 0.0336,0.1695 -0.14211,0.0879 -0.0884,0.0548 0.0155,-0.0248 z m -21.55114,0.13126 h 3.68711 3.68712 l 0.66921,0.25477 0.66921,0.25425 v 5.1e-4 l -0.66921,-0.25425 -0.66973,-0.25476 h -3.6866 -3.68711 z m 9.02684,5.2e-4 h 5.2e-4 l -0.0972,0.1571 z m 46.00546,0 h 10e-4 v 0.26458 0.26407 h -10e-4 v -0.26458 z m 10.58333,0 h 0.001 v 1.05833 1.05782 h -0.001 v -1.05833 z m -44.38747,0.38137 0.0997,0.26045 -0.13901,-0.19844 z m -50.330777,0.1478 h 0.06356 l -0.07958,0.077 -0.943612,0.91261 z m 50.804137,0.0987 0.0455,0.23048 -0.0429,0.0677 z m 57.59803,0.17053 0.13746,0.52452 h -5.2e-4 z m -108.302431,0.0465 -0.158647,0.25631 -0.07493,-0.0558 z m 50.662021,0.20515 0.1664,0.26872 0.1664,0.26872 h 0.13126 l -0.13281,5.2e-4 -0.36329,-0.51832 z m 0.42633,0.26149 0.17105,0.27595 h -5.1e-4 z m 57.8187,0.0114 -0.031,0.19843 -0.0315,0.19844 0.0315,0.19844 0.031,0.19844 -0.0315,-0.19844 -0.031,-0.19844 0.031,-0.19844 z m -108.072994,0.20619 -0.538468,0.4501 -0.0832,0.0419 0.0832,-0.0424 z m 41.335464,0.45526 0.002,0.077 -0.1757,0.71675 -0.19482,0.79375 v -0.005 l 0.18397,-0.7891 z m -25.86664,0.13178 h 1.05833 1.05834 v 5.2e-4 h -1.05834 -1.05833 z m 6.35,0 h 3.175 3.175 v 5.2e-4 h -3.175 -3.175 z m 74.0823,5.2e-4 h 0.001 v 0.26458 0.26407 h -0.001 v -0.26459 z m -45.19414,0.39635 h 0.17208 l 0.0269,0.0295 z m 59.015,5.2e-4 5.2e-4,0.002 -0.0103,0.79168 -0.01,0.7922 -5.1e-4,0.002 0.0103,-0.79375 z m -112.861327,0.28991 -1.169438,1.32343 -0.225309,0.25476 0.905888,-1.07435 z m 54.159997,0.0191 h 0.1416 l 0.15761,0.1726 z m -31.3185,0.6165 h 1.05834 1.05833 v 5.1e-4 h -1.05833 -1.05834 z m -20.854021,0.51469 0.613399,0.24598 h -10e-4 z m 6.037357,0.27906 h 2.116667 2.116667 v 5.1e-4 h -2.116667 -2.116667 z m 6.350004,0 h 2.11666 2.11667 v 5.1e-4 h -2.11667 -2.11666 z m 6.35,0 h 1.05833 1.05833 v 5.1e-4 h -1.05833 -1.05833 z m 35.03352,0.0656 -0.25425,0.21084 -0.0744,0.0615 -0.0212,-0.0558 0.19792,-0.12247 z m -0.10852,0.43304 v 0.28009 0.13229 l -0.0925,-0.24029 -0.0357,-0.0925 z m -53.116141,0.0305 -5.17e-4,5.2e-4 -0.627352,0.0186 -0.627869,0.0186 -0.511596,0.2005 -0.51108,0.20051 -5.17e-4,-5.2e-4 0.511597,-0.20051 0.511596,-0.2005 0.627869,-0.0186 z m 1.257804,0 h 2.116667 2.116666 v 5.2e-4 H 93.82779 91.711123 Z m 8.466667,0 h 1.05833 1.05834 v 5.2e-4 h -1.05834 -1.05833 z m -10.383346,0.79375 h 5.17e-4 0.957564 0.958598 v 5.2e-4 h -0.958598 -0.958081 z m -3.374988,0.23358 v 5.2e-4 l -0.293005,0.18086 -0.292489,0.18087 0.292489,-0.18138 z m -0.827339,0.45527 0.165881,0.20464 -0.265617,-0.0992 h 0.164848 z m 0.827339,0.0196 1.190625,0.045 1.190625,0.045 v 5.2e-4 l -1.190625,-0.045 z m 0.131775,0.36328 -0.697632,0.58911 -0.698148,0.5886 0.698148,-0.58911 z m 58.524079,0.17002 0.21394,0.13229 -0.0956,0.0594 z m -60.469697,0.0739 0.245464,0.15193 -0.245464,-0.15141 z m 60.861397,0.16847 0.21911,0.13539 v 0.11679 0.11627 h -0.11679 -0.0315 z m -0.17776,0.10387 h 0.13229 v 0.13229 0.0816 z m -0.13229,0.13229 0.10697,0.13229 h -0.10697 z m 57.21149,0.52917 5.2e-4,0.002 -0.0103,0.79169 -0.01,0.7922 -5.1e-4,0.002 0.0103,-0.79375 z m -118.326626,0.35191 -0.332797,0.12816 -0.332279,0.12764 0.332279,-0.12815 z m 62.570336,0.44184 0.25012,0.22066 h -0.0558 z m -62.655603,0.0501 0.289389,0.1788 0.288871,0.1788 v 5.2e-4 l -0.288871,-0.1788 -0.288872,-0.17828 -5.17e-4,-5.2e-4 z m 63.005453,0.34675 h 0.047 v 0.0532 z m -0.21755,0.16227 0.0816,0.10232 h -0.0816 z m -61.862894,0.1018 0.275435,0.17001 0.275435,0.17002 v 5.2e-4 l -0.275435,-0.17002 z m 62.332114,0.007 0.21135,0.25476 -0.17156,-0.19482 -0.0481,-0.0548 z m 0.44803,0.25786 0.40566,0.3576 v 0.0739 z m 0.98496,0.66198 -0.12299,0.3824 0.0114,-0.22686 z m -66.164441,0.13229 h 0.293005 0.293006 l -5.17e-4,5.2e-4 h -0.308508 -0.277503 z m -0.03152,0.0512 v 0.0811 0.13229 h -0.132291 l 0.01395,-0.0222 z m 65.973231,0.12764 -0.0139,0.0362 -0.13281,0.34675 -0.0791,-0.0667 0.19276,-0.27027 z m -66.106039,0.35037 h 0.132808 0.264584 v 0.1328 l -0.202572,-0.0677 z m 66.656909,0.0134 v 0.23358 l -0.10387,-0.19379 z m -66.259517,0.28939 v 0.22634 H 82.48893 Z m -0.529167,0.0791 0.05633,0.14727 h -0.05633 z m 0,0.4501 v 0.047 0.24443 l -0.163298,-0.12816 z m 67.182974,0.15244 0.0982,0.007 0.49247,0.0372 0.0243,0.0295 h -0.28732 -0.28784 z m -67.507502,0.17932 0.125057,0.15916 -0.256315,0.33073 0.236678,-0.30747 z m 70.981712,3.55896 -0.0372,0.12815 h -0.1695 z m -0.0465,0.16123 -0.0263,0.0915 -0.0729,0.25218 0.22686,0.31058 -0.0599,-0.0724 -0.29456,-0.35501 0.13023,-0.12971 z m 1.63401,1.69085 -0.0372,0.12816 h -0.1695 z m -0.0465,0.16123 -0.0264,0.0915 -0.0729,0.25218 0.22686,0.31057 -0.0599,-0.0723 -0.29456,-0.35502 0.13023,-0.12971 z m 1.70222,1.64848 -0.1049,0.17053 h -5.2e-4 -0.17001 z m 0.46354,0.21445 0.28112,0.48318 0.2806,0.48266 -0.28112,-0.48266 z m -26.55497,0.0507 0.0894,0.0553 0.0899,0.23565 z m 74.5262,0.7431 v 2.77813 2.77812 l 0.0977,-1.38906 0.0971,-1.38906 -0.0971,-1.38906 z m -46.84727,1.10846 -0.1049,0.17054 h -0.17105 z m 0.18294,0.52349 0.13487,0.13487 -0.12919,0.20826 -0.006,0.009 z m 0.22169,0.22169 0.13126,0.13074 -0.15297,0.15296 z m 0.63769,0.37259 0.0816,0.0822 -0.23667,0.32401 z m 0.19895,0.19947 0.0971,0.0971 -0.0971,0.0966 v -0.17208 z m -0.34158,0.53226 -0.16847,0.16692 -0.0196,-0.032 0.01,-0.0243 z m -31.38413,2.64274 h 0.1695 l -0.27441,0.17001 z m 34.71778,1.59318 -0.10491,0.17053 h -0.17053 l 0.003,-0.002 z m 1.01595,1.92081 -0.063,0.10181 h -0.37311 -0.0532 l 0.13901,-0.0289 z m -45.52435,8.30234 0.0408,0.045 0.19585,0.21652 -0.0429,0.0522 -0.11783,-0.19069 z m -2.07429,3.26027 -0.0656,0.0925 -0.10439,0.14676 0.0336,-0.0651 z m 0.64647,30.17335 0.18862,0.30541 0.18914,0.3054 h 0.11627 0.11679 v -0.11627 -0.11679 l -0.30541,-0.18862 z m 48.1459,0.83457 -0.11834,0.17312 -0.0889,0.0915 z" /></g></g></svg>
