<?xml version="1.0" encoding="UTF-8" standalone="no"?>
<!-- Created with Inkscape (http://www.inkscape.org/) -->

<svg
   width="210.00002mm"
   height="164.96948mm"
   viewBox="0 0 210.00002 164.96948"
   version="1.1"
   id="svg1"
   xml:space="preserve"
   inkscape:export-filename="speed.svg"
   inkscape:export-xdpi="96"
   inkscape:export-ydpi="96"
   xmlns:inkscape="http://www.inkscape.org/namespaces/inkscape"
   xmlns:sodipodi="http://sodipodi.sourceforge.net/DTD/sodipodi-0.dtd"
   xmlns="http://www.w3.org/2000/svg"
   xmlns:svg="http://www.w3.org/2000/svg"><sodipodi:namedview
     id="namedview1"
     pagecolor="#505050"
     bordercolor="#eeeeee"
     borderopacity="1"
     inkscape:showpageshadow="0"
     inkscape:pageopacity="0"
     inkscape:pagecheckerboard="0"
     inkscape:deskcolor="#505050"
     inkscape:document-units="mm" /><defs
     id="defs1" /><g
     inkscape:label="Calque 1"
     inkscape:groupmode="layer"
     id="layer1"><path
       style="fill:#b91414;fill-opacity:1;stroke-width:0.999996"
       d="M 14.748872,157.88991 C 5.2089702,141.16026 0.86218813,126.3948 0.08562185,108.08074 -1.2632912,76.268885 13.408694,43.833272 38.260236,23.687488 53.577303,11.270784 70.33759,3.9435152 90.520837,0.84020403 c 7.299543,-1.12235816 21.498883,-1.11995786 29.163833,0.005336 48.75532,7.15510937 85.54278,45.94783297 89.9567,94.86028697 0.94226,10.441553 0.009,22.453353 -2.57708,33.156623 -2.5137,10.405 -5.79451,18.46336 -11.81822,29.02789 l -4.03639,7.07914 -2.36071,-1.36528 c -1.29837,-0.75091 -5.02946,-2.88579 -8.29125,-4.74416 l -5.93055,-3.37889 0.92933,-1.57658 c 0.51113,-0.86712 0.86827,-1.63017 0.79361,-1.69566 -0.0746,-0.0654 -3.13866,-1.8518 -6.80891,-3.9696 -6.97567,-4.02505 -8.03715,-5.06716 -8.03715,-7.89033 0,-1.98493 0.80264,-3.50214 2.33008,-4.40443 2.56995,-1.5181 4.30359,-1.06446 11.34493,2.9687 3.59734,2.0605 6.63054,3.65645 6.74043,3.54656 0.44073,-0.44072 3.93477,-8.90959 4.17835,-10.12744 0.24292,-1.21456 0.12055,-1.34108 -1.77582,-1.83588 -8.07694,-2.10748 -9.30254,-2.52349 -9.08726,-3.0845 0.12514,-0.32593 0.44919,-1.44632 0.72027,-2.48979 0.27107,-1.04344 0.70306,-2.70789 0.95998,-3.69874 l 0.46709,-1.80157 5.70268,1.54706 c 3.13647,0.85086 5.77551,1.47419 5.86456,1.38517 0.2994,-0.29943 1.50481,-8.41811 1.50661,-10.14737 l 0.002,-1.71187 -7.82216,-0.15603 c -8.27844,-0.16521 -9.06996,-0.36398 -10.69627,-2.68585 -0.9373,-1.33817 -0.90924,-4.44398 0.0534,-5.91318 1.38905,-2.11996 3.24478,-2.53147 11.41571,-2.53147 h 7.45756 l -0.19265,-1.517748 c -0.99602,-7.846784 -1.26849,-9.593831 -1.57308,-10.086679 -0.26567,-0.429869 -1.68872,-0.207898 -5.83289,0.90987 -3.15039,0.849716 -5.65192,1.303196 -5.88223,1.066318 -0.68012,-0.699512 -2.32502,-7.837117 -1.87082,-8.117841 0.23349,-0.144384 2.86075,-0.884399 5.83833,-1.644665 5.3015,-1.353612 5.40775,-1.406596 5.12072,-2.553894 -0.60823,-2.431335 -4.09065,-10.278019 -4.56145,-10.278019 -0.27016,0 -3.38483,1.681182 -6.92151,3.735966 -7.70669,4.477523 -9.28441,4.762366 -11.8986,2.148177 -1.35305,-1.353053 -1.58777,-1.910674 -1.58777,-3.771883 0,-2.902224 0.97722,-3.82595 8.6394,-8.166468 3.33901,-1.891506 6.15422,-3.505382 6.25602,-3.586396 0.28491,-0.22674 -1.87209,-3.328424 -4.76957,-6.858535 l -2.61819,-3.189776 -4.47658,4.330688 -4.47659,4.330687 -3.12318,-3.123169 -3.12317,-3.123187 4.38775,-4.40609 4.38778,-4.406073 -1.54325,-1.317053 c -2.24666,-1.917394 -8.04625,-6.221911 -8.36981,-6.212181 -0.15232,0.005 -2.02471,3.053536 -4.16079,6.775488 -4.15528,7.240248 -5.08875,8.160023 -8.2816,8.160023 -1.31564,0 -2.0665,-0.362137 -3.29215,-1.587781 -2.63484,-2.634839 -2.34082,-4.282715 2.14817,-12.040015 2.05478,-3.550796 3.73597,-6.63358 3.73597,-6.85064 0,-0.39609 -1.01632,-0.861508 -7.43294,-3.403949 -3.97436,-1.574751 -3.8136,-1.66722 -4.93564,2.839211 -0.41958,1.68514 -1.07523,4.149049 -1.45702,5.475415 l -0.69417,2.411526 -3.95453,-1.055996 c -2.17499,-0.580799 -4.08178,-1.183266 -4.23732,-1.338805 -0.15549,-0.155499 0.40127,-2.836985 1.23735,-5.958776 1.15975,-4.3303 1.3837,-5.760319 0.94459,-6.031709 -0.49086,-0.303371 -6.07993,-1.156653 -10.40875,-1.5891 l -1.28422,-0.128317 v 7.406024 c 0,8.101233 -0.39278,9.876985 -2.48833,11.250048 -1.55888,1.021414 -4.67234,1.021414 -6.23122,0 -2.09648,-1.373663 -2.488331,-3.147832 -2.488331,-11.266163 v -7.422156 l -1.050736,0.146497 c -0.577914,0.08066 -3.072721,0.390139 -5.544051,0.687899 -2.471304,0.297758 -4.758897,0.705531 -5.083517,0.906161 -0.458907,0.283621 -0.251268,1.630401 0.933198,6.053048 0.854043,3.188846 1.343565,5.84984 1.114082,6.056012 -0.225147,0.202253 -2.137055,0.791664 -4.248666,1.309808 -3.498079,0.858329 -3.859199,0.874478 -4.06327,0.18171 -0.123175,-0.418188 -0.769987,-2.756755 -1.437326,-5.196803 -0.667339,-2.440055 -1.318863,-4.793479 -1.447823,-5.229863 -0.27242,-0.921835 -0.169513,-0.947004 -6.607835,1.616935 -2.632689,1.048422 -4.786702,2.091587 -4.786702,2.318143 0,0.226557 1.681183,3.305581 3.735958,6.842245 4.489437,7.727203 4.784226,9.375503 2.148177,12.01156 -1.225643,1.225644 -1.976505,1.587773 -3.292157,1.587773 -3.17065,0 -4.113961,-0.923101 -8.223053,-8.046829 -2.113995,-3.664924 -3.912783,-6.745482 -3.997306,-6.845688 -0.237186,-0.281132 -4.843837,2.99531 -7.594615,5.401617 l -2.467169,2.158232 4.351114,4.369273 4.351114,4.369289 -3.142979,3.142988 -3.142988,3.14297 -4.413893,-4.395535 -4.413896,-4.395551 -0.966234,1.13335 c -2.756623,3.233429 -6.538298,8.489128 -6.339591,8.810646 0.124787,0.201903 2.911662,1.910107 6.193066,3.796011 7.582547,4.357875 8.534662,5.267212 8.534662,8.151269 0,1.861217 -0.234727,2.418838 -1.587789,3.771883 -2.61418,2.614188 -4.191906,2.329354 -11.898586,-2.148169 -3.536673,-2.054784 -6.651358,-3.735967 -6.921522,-3.735967 -0.541235,0 -4.274538,8.654298 -4.460056,10.339016 -0.107048,0.972132 0.321917,1.174827 5.406313,2.554443 3.037423,0.824188 5.601787,1.577709 5.698584,1.674522 0.257893,0.257888 -1.650671,7.545604 -2.096335,8.004704 -0.208451,0.214751 -2.852604,-0.269694 -5.875897,-1.076532 -4.215953,-1.125129 -5.580257,-1.332102 -5.854628,-0.888159 -0.310107,0.501777 -0.582452,2.242847 -1.579392,10.096917 l -0.192651,1.51774 h 7.457556 c 8.170932,0 10.026665,0.411518 11.415715,2.531478 0.962656,1.46919 0.990719,4.57501 0.05342,5.91317 -1.626305,2.32187 -2.417832,2.52063 -10.696262,2.68586 l -7.822164,0.15602 0.0018,1.71188 c 0.0018,1.77201 1.210501,9.85123 1.520067,10.16079 0.09642,0.0964 2.735671,-0.52615 5.864993,-1.38351 l 5.689679,-1.55883 0.491087,1.91666 c 0.2701,1.05415 0.785462,2.95974 1.145253,4.23461 0.359791,1.27488 0.605743,2.36638 0.546562,2.42556 -0.139578,0.13962 -10.515573,2.9619 -10.889129,2.9619 -0.550618,0 0.270877,2.72016 2.109322,6.98448 1.022355,2.37138 1.948739,4.40151 2.058632,4.5114 0.10989,0.10996 3.14309,-1.48607 6.74044,-3.54656 4.931018,-2.8244 6.964509,-3.74636 8.263028,-3.74636 3.340514,0 5.411972,1.98347 5.411972,5.18209 0,2.84232 -1.072355,3.8979 -8.046835,7.92088 -3.664926,2.114 -6.724581,3.89189 -6.79923,3.95088 -0.07464,0.0589 0.284498,0.81947 0.798105,1.68995 l 0.93383,1.58273 -5.935049,3.3766 c -3.264276,1.85714 -6.997364,3.98926 -8.29575,4.73804 l -2.360701,1.36142 z m 87.613508,-12.48127 c -9.807394,-1.31125 -16.995377,-11.28338 -15.12478,-20.98307 1.346184,-6.98028 7.475251,-13.25031 13.96722,-14.28842 1.82858,-0.29239 2.53833,-1.08433 22.45434,-25.054339 11.31134,-13.61381 20.56609,-24.593893 20.56609,-24.400202 0,0.193708 -5.05017,13.848491 -11.2226,30.343983 -10.33184,27.611298 -11.17892,30.099208 -10.67218,31.345128 0.30274,0.74435 0.56426,3.13962 0.58115,5.32281 0.027,3.49924 -0.14085,4.33586 -1.41748,7.06255 -3.6309,7.75485 -10.82794,11.76177 -19.13176,10.65156 z m 6.10705,-10.70225 c 5.67389,-2.77037 5.84037,-10.93652 0.28287,-13.87541 -1.11844,-0.59143 -2.80803,-1.07535 -3.75463,-1.07535 -2.64953,0 -5.602982,1.80053 -6.863542,4.18427 -1.723044,3.25834 -1.316069,6.40483 1.172577,9.0652 2.511485,2.68481 5.870915,3.30857 9.162725,1.70129 z"
       id="path1"
       inkscape:export-filename=".\path1.svg"
       inkscape:export-xdpi="96"
       inkscape:export-ydpi="96" /></g></svg>
